<?xml version="1.0" encoding="UTF-8"?>
<svg version="1.1" xmlns="http://www.w3.org/2000/svg" width="1170" height="322">
<path d="M0 0 C12.09624884 0.00327738 24.19249486 0.00055418 36.28874357 -0.00220441 C58.61272667 -0.00711705 80.93670793 -0.00737172 103.2606912 -0.00462769 C125.35486495 -0.00191342 147.44903758 -0.00088191 169.54321149 -0.00214814 C170.94208094 -0.00222562 172.34095038 -0.00230278 173.73981983 -0.00237961 C179.36406395 -0.00269019 184.98830807 -0.00300886 190.61255219 -0.00333937 C206.32589866 -0.0042555 222.03924514 -0.00482674 237.75259164 -0.00512551 C238.46760419 -0.00513915 239.18261674 -0.0051528 239.91929633 -0.00516686 C262.63635386 -0.00557496 285.35341104 -0.0044554 308.07046846 -0.00227593 C308.80515944 -0.00220568 309.53985042 -0.00213543 310.29680476 -0.00206305 C322.22083107 -0.00091869 334.14485738 0.00030105 346.06888368 0.00152712 C393.3314651 0.00638161 440.5940437 0.00615675 487.85662511 0.00129653 C499.77406202 0.00007492 511.69149894 -0.00113631 523.60893586 -0.00227593 C524.71027438 -0.0023816 524.71027438 -0.0023816 525.83386216 -0.00248941 C548.53056252 -0.00465203 571.22726264 -0.00555866 593.9239631 -0.00512551 C594.99567258 -0.00510513 594.99567258 -0.00510513 596.08903276 -0.00508434 C611.78677038 -0.00477159 627.48450798 -0.00413742 643.18224558 -0.00321501 C648.80118726 -0.002886 654.42012894 -0.0025729 660.03907062 -0.00226429 C661.43637461 -0.0021869 662.8336786 -0.00210817 664.23098259 -0.0020281 C686.30548075 -0.00076644 708.37997766 -0.00216455 730.45447566 -0.00487824 C753.35348491 -0.00766252 776.25249194 -0.00656795 799.1515009 -0.00134695 C811.14441882 0.00129861 823.13733168 0.00246798 835.13024953 -0.0009961 C887.73112627 -0.01529202 940.31343019 0.18561212 992.90667394 1.13166763 C992.90667394 1.46166763 992.90667394 1.79166763 992.90667394 2.13166763 C944.82137126 3.42008088 896.73002788 3.27658278 848.63159917 3.26333526 C836.03542981 3.26007887 823.43926321 3.26277189 810.84309397 3.26553966 C787.59615331 3.27046816 764.34921532 3.27069967 741.10227445 3.26796295 C718.08973777 3.26525526 695.07720217 3.26421388 672.06466535 3.26548339 C670.61141769 3.26556087 669.15817003 3.26563803 667.70492238 3.26571486 C661.86298224 3.26602541 656.0210421 3.26634408 650.17910196 3.26667463 C633.85481822 3.26759103 617.53053447 3.26816207 601.2062507 3.26846076 C600.46326707 3.26847441 599.72028345 3.26848806 598.95478517 3.26850212 C575.32760007 3.26891058 551.7004153 3.26778872 528.0732303 3.26561119 C527.30841415 3.26554094 526.54359801 3.26547069 525.75560562 3.26539831 C513.3403361 3.26425375 500.92506659 3.26303411 488.50979709 3.26180814 C439.28588729 3.25695263 390.06198021 3.25717848 340.83807042 3.26203872 C328.42743829 3.26326019 316.01680616 3.26447136 303.60617402 3.26561119 C302.84171152 3.26568163 302.07724901 3.26575208 301.28962098 3.26582466 C277.68318195 3.26798507 254.07674316 3.26889433 230.47030404 3.26846076 C229.72789925 3.26844718 228.98549445 3.2684336 228.22059254 3.2684196 C211.91418867 3.26810694 195.60778482 3.26747296 179.30138097 3.26655026 C173.46539544 3.26622121 167.62940992 3.26590811 161.79342439 3.26559955 C160.34196167 3.26552216 158.89049895 3.26544343 157.43903623 3.26536335 C134.44143031 3.26409801 111.44382559 3.26550645 88.44621982 3.2682135 C64.60912291 3.27098868 40.7720293 3.26992111 16.93493267 3.2646822 C4.43411995 3.26202454 -8.0666879 3.26088926 -20.56750056 3.26433135 C-118.035953 3.28959238 -118.035953 3.28959238 -160.09332606 2.13166763 C-160.09332606 1.80166763 -160.09332606 1.47166763 -160.09332606 1.13166763 C-106.72777088 0.15413567 -53.37342717 -0.01541215 0 0 Z " fill="#ffffff" transform="translate(169.0933260624297,147.868332372047)"/>
<path d="M0 0 C-0.3122714 3.00312072 -0.86356072 3.88586099 -3.22265625 5.859375 C-4.15980469 6.48328125 -5.09695313 7.1071875 -6.0625 7.75 C-11.28673912 11.37832273 -15.68050377 15.34633071 -20 20 C-19.26394531 20.37511719 -18.52789063 20.75023437 -17.76953125 21.13671875 C-6.85981954 26.8581924 -6.85981954 26.8581924 -4 31 C-3.1837958 36.14208646 -3.08768168 37.68769137 -6.09375 42.01171875 C-8.98554575 45.28678318 -12.20056564 47.05736724 -16.125 48.875 C-16.74503906 49.18179688 -17.36507812 49.48859375 -18.00390625 49.8046875 C-20.85400357 51.17763761 -22.79876992 52 -26 52 C-26 52.66 -26 53.32 -26 54 C-24.9790625 54.2784375 -24.9790625 54.2784375 -23.9375 54.5625 C-18.7465508 57.10275173 -14.10240962 61.53373498 -12 67 C-11.09167233 73.69294074 -11.22156785 79.60353956 -15.33984375 85.1328125 C-27.73146536 99.06974222 -45.47374514 104.56851728 -63.70703125 105.91796875 C-67.80641758 106.06462482 -71.89904291 106.07852897 -76 106 C-78.0122424 100.90149626 -75.12310047 96.50422517 -73.12890625 91.79296875 C-50.86888625 41.10710981 -50.86888625 41.10710981 -32 23 C-38.89235907 23.25339555 -45.38079555 23.62337148 -51 28 C-53.07416545 31.21161102 -54.27941781 34.2529726 -55 38 C-57.530472 37.66260373 -58.6818563 37.3938922 -60.3125 35.375 C-61.32680207 31.8710474 -60.92516366 29.51562191 -60 26 C-57.03871572 22.29839465 -54.45856765 20.46584729 -50 19 C-47.43212891 18.79223633 -47.43212891 18.79223633 -44.7265625 18.83203125 C-43.2415625 18.82139648 -43.2415625 18.82139648 -41.7265625 18.81054688 C-39.66656173 18.8118441 -37.60647778 18.83253438 -35.546875 18.87304688 C-29.92706151 18.87063499 -29.92706151 18.87063499 -24.96655273 16.55737305 C-23.80469899 15.35322867 -22.68150875 14.1105435 -21.60058594 12.83325195 C-19.09626293 9.96489298 -16.03637214 8.15979255 -12.8125 6.1875 C-12.20986328 5.80658203 -11.60722656 5.42566406 -10.98632812 5.03320312 C-2.95612139 0 -2.95612139 0 0 0 Z M-24 24 C-29.48186551 31.23457081 -34.90030521 38.48873587 -40 46 C-40.68707031 46.98871094 -41.37414062 47.97742188 -42.08203125 48.99609375 C-51.27363727 62.6627724 -65 83.99910139 -65 101 C-52.60925857 101.61953707 -40.65709699 98.22177559 -30.6875 90.6875 C-26.42262456 86.42262456 -23.10453271 81.95938876 -21.9375 75.9375 C-22.03115404 70.03729542 -24.08866733 66.8582401 -28.25 62.8125 C-34.196036 58.69101388 -34.196036 58.69101388 -41 57 C-40.67 56.01 -40.34 55.02 -40 54 C-37.62890625 53.04296875 -37.62890625 53.04296875 -34.5625 52.1875 C-26.06522281 49.52704297 -17.78850357 45.82122249 -13 38 C-12 34.5 -12 34.5 -13 31 C-16.05553248 27.29682748 -19.25134998 24.90350421 -24 24 Z " fill="#B95A64" transform="translate(905,181)"/>
<path d="M0 0 C5.12577888 5.69530987 5.47173392 10.37664801 5.40234375 17.84765625 C4.25305702 34.89881768 -5.96260509 51.57479905 -17 64 C-17.62519531 64.70769531 -18.25039062 65.41539062 -18.89453125 66.14453125 C-27.56754659 75.38279403 -38.68122591 82.06812259 -51.4375 83.34375 C-57.23221613 83.50178771 -62.18256665 83.58219403 -67 80 C-72.73335714 73.80177607 -72.41482656 67.54665745 -72.2734375 59.55859375 C-71.60309878 43.70607852 -63.35765746 29.58174425 -53 18 C-52.24976563 17.15566406 -51.49953125 16.31132812 -50.7265625 15.44140625 C-42.56529109 6.76510315 -32.70988002 -0.19250827 -21 -3 C-20.030625 -3.2475 -19.06125 -3.495 -18.0625 -3.75 C-11.70831074 -4.26870933 -5.10362061 -4.20298168 0 0 Z M-38 12 C-38.67933594 12.58523437 -39.35867187 13.17046875 -40.05859375 13.7734375 C-52.8094806 25.55495868 -60.69252658 43.05187098 -61.95703125 60.25390625 C-62.05053932 66.22992208 -61.32228942 70.38019546 -57.5 75.0625 C-53.32087284 77.99093947 -48.87887863 77.78239204 -44 77 C-37.05012001 75.04714116 -32.03858574 71.02856867 -27 66 C-26.34128906 65.35289062 -25.68257812 64.70578125 -25.00390625 64.0390625 C-13.31460446 51.78010663 -4.95403655 34.50304594 -4.75 17.5 C-4.71132812 15.56640625 -4.71132812 15.56640625 -4.671875 13.59375 C-5.01679731 9.81602951 -5.79616384 8.0268226 -8 5 C-8.5878125 4.13375 -8.5878125 4.13375 -9.1875 3.25 C-19.04237204 -3.54646348 -30.68739196 5.55004082 -38 12 Z " fill="#7F6D95" transform="translate(191,200)"/>
<path d="M0 0 C0 0.66 0 1.32 0 2 C-1.828125 3.55078125 -1.828125 3.55078125 -4.25 5.3125 C-7.71648439 7.92191659 -10.49705629 10.4088199 -13 14 C-11.515 14.0928125 -11.515 14.0928125 -10 14.1875 C-3.99612395 15.06433382 0.39055429 18.31008201 4.5 22.625 C6.66274061 27.49116638 6.73558111 31.75898458 6 37 C4.77479111 40.01197186 3.97197528 41.59105293 2 44 C1.46375 44.65742188 0.9275 45.31484375 0.375 45.9921875 C-8.51521524 55.80846683 -21.98810474 60.79519488 -35 62 C-37.67309459 62.06623597 -40.32519819 62.04692635 -43 62 C-43.33644531 63.16208984 -43.33644531 63.16208984 -43.6796875 64.34765625 C-45.45278657 69.25253088 -47.74691066 73.8015253 -50.125 78.4375 C-50.57359375 79.35337891 -51.0221875 80.26925781 -51.484375 81.21289062 C-55.15396895 88.35219842 -59.55488609 93.67641773 -66.75 97.4375 C-69 98 -69 98 -73 98 C-71.63660749 94.12439057 -69.85763064 91.29617788 -67.3359375 88.06640625 C-63.05833267 82.30215527 -59.75321663 76.20687874 -56.55770874 69.80422974 C-54.95449367 66.59554399 -53.31573954 63.40497392 -51.68359375 60.2109375 C-51.36423355 59.58379349 -51.04487335 58.95664948 -50.71583557 58.3105011 C-44.01206981 45.15346713 -36.90167605 32.7926791 -28 21 C-27.41089844 20.21367187 -26.82179688 19.42734375 -26.21484375 18.6171875 C-25.81394531 18.08351562 -25.41304688 17.54984375 -25 17 C-32.46487211 16.39799418 -37.76645583 17.72428378 -44 22 C-46.29416178 24.56703565 -46.95956036 25.51472432 -47.25 29 C-47.04374922 31.47500934 -46.72767897 33.63504335 -46 36 C-49.93350486 35.10602162 -51.72655324 34.30850403 -54.4375 31.25 C-56 28 -56 28 -56.125 24.9375 C-54.64206695 21.06539703 -52.50077326 19.04515029 -49 17 C-41.94155054 14.01039311 -35.32344592 12.98419637 -27.6875 12.875 C-21.50674152 12.61554235 -18.10518361 11.38214234 -13.83984375 6.85546875 C-10.18349862 3.16807186 -5.25223087 0 0 0 Z M-17 17 C-23.11245523 25.08676247 -28.15757111 33.60090746 -33 42.5 C-33.57580811 43.55058594 -34.15161621 44.60117188 -34.74487305 45.68359375 C-35.28281494 46.68519531 -35.82075684 47.68679687 -36.375 48.71875 C-36.85710937 49.61529297 -37.33921875 50.51183594 -37.8359375 51.43554688 C-38.98953318 53.97694138 -39.57438013 56.25079258 -40 59 C-25.79774724 57.36503276 -15.40103502 52.18339438 -6.296875 40.88671875 C-3.49692886 36.74312029 -2 33.1013483 -2 28 C-3.64814396 23.33025878 -5.77824091 20.59062489 -10 18 C-12.32561798 17.61652044 -14.65936627 17.27746949 -17 17 Z " fill="#AD789F" transform="translate(451,189)"/>
<path d="M0 0 C-0.33 1.98 -0.66 3.96 -1 6 C-0.5153125 5.566875 -0.030625 5.13375 0.46875 4.6875 C4.08561887 1.68271664 6.66224683 -0.42683307 11.5 -0.375 C13.2325 -0.189375 13.2325 -0.189375 15 0 C17.003743 4.00748601 16.42218572 8.33923327 15.3515625 12.55078125 C11.26435372 24.62027384 4.61144416 37.14923044 -7.03515625 43.35546875 C-10.94248547 44.63719702 -14.94781869 44.25503239 -19 44 C-19.99 44 -20.98 44 -22 44 C-23.27299829 45.59256773 -23.27299829 45.59256773 -24.3125 47.734375 C-24.74264404 48.53085449 -25.17278809 49.32733398 -25.6159668 50.14794922 C-26.07269775 51.00662598 -26.52942871 51.86530273 -27 52.75 C-32.77054744 63.1379528 -40.3026573 75.55042258 -52 80 C-55.00747399 80.61280818 -57.93370093 80.92192294 -61 81 C-59.80914044 77.42742131 -59.15169278 77.29471394 -56 75.5 C-46.15205294 69.17664548 -40.27185428 58.68726666 -34.6875 48.6875 C-34.05158936 47.56682129 -33.41567871 46.44614258 -32.76049805 45.29150391 C-19.9473318 24.36308633 -19.9473318 24.36308633 -10.0625 2.0625 C-9 0 -9 0 -6.625 -0.875 C-4.13345783 -0.99364487 -2.35176707 -0.78392236 0 0 Z M-0.609375 10.4765625 C-3.58814416 13.62081884 -6.17960216 16.9558185 -8.75 20.4375 C-9.20955078 21.05761963 -9.66910156 21.67773926 -10.14257812 22.31665039 C-15.94786064 29.99775508 -15.94786064 29.99775508 -17.75 39 C-17.5025 39.66 -17.255 40.32 -17 41 C-10.7038291 40.15327357 -7.88809453 36.80294031 -4 32 C4.54478588 19.95822001 4.54478588 19.95822001 8 6 C3.80135224 6 2.42639678 7.7218807 -0.609375 10.4765625 Z " fill="#7F6D95" transform="translate(210,231)"/>
<path d="M0 0 C0 3.33333333 0 6.66666667 0 10 C0.50789062 9.45730469 1.01578125 8.91460937 1.5390625 8.35546875 C10.30892678 -0.75927783 10.30892678 -0.75927783 16.875 -1.1875 C17.57625 -1.125625 18.2775 -1.06375 19 -1 C20.85760936 5.03723041 18.65263624 8.65599902 16 14 C14.75717053 16.32883272 13.47979853 18.63546826 12.19287109 20.94018555 C7.76400103 28.91264394 4.40669097 35.73853736 4 45 C-0.875 43.25 -0.875 43.25 -2 41 C-3.39514301 32.00907836 0.82048939 25.5610729 4.97802734 17.89892578 C6.37913739 15.29552542 7.69150966 12.65091847 9 10 C9.66666667 8.66666667 10.33333333 7.33333333 11 6 C-1.39015723 12.83296629 -8.81069299 27.11836854 -16 38.875 C-18 42 -18 42 -20 43 C-21.99960012 43.039992 -24.00047242 43.04346799 -26 43 C-25.39988052 38.49883768 -23.56819016 34.93977682 -21.40234375 31.01953125 C-20.87176109 30.03843636 -20.87176109 30.03843636 -20.33045959 29.03752136 C-19.20564212 26.95909308 -18.07231136 24.88548626 -16.9375 22.8125 C-15.79997874 20.72836509 -14.6644172 18.64324809 -13.53382874 16.55534363 C-12.83140406 15.25868995 -12.12484651 13.96426504 -11.4138031 12.6723175 C-9.5856289 9.51895017 -9.5856289 9.51895017 -9 6 C-20.42916563 15.0667124 -29.847061 27.10521469 -36.09375 40.3125 C-37 42 -37 42 -39 43 C-41.3329866 43.04022391 -43.66706666 43.04320247 -46 43 C-44.6915098 38.71448572 -43.03588772 34.98421156 -40.84765625 31.078125 C-39.93016602 29.41523438 -39.93016602 29.41523438 -38.99414062 27.71875 C-37.71394473 25.41983401 -36.43013073 23.12292882 -35.14257812 20.828125 C-31.89279604 14.92315819 -29.1741751 9.36649747 -27.50561523 2.81933594 C-27 1 -27 1 -26 0 C-23.32941149 -0.14115161 -20.67567762 -0.04247107 -18 0 C-18.53771481 3.37992169 -19.14303932 6.68737889 -20 10 C-19.43152344 9.45730469 -18.86304688 8.91460937 -18.27734375 8.35546875 C-6.27809812 -2.76236317 -6.27809812 -2.76236317 0 0 Z M-23 12 C-22 14 -22 14 -22 14 Z " fill="#AD789F" transform="translate(652,234)"/>
<path d="M0 0 C0 0.66 0 1.32 0 2 C-0.804375 2.495 -1.60875 2.99 -2.4375 3.5 C-17.15984923 12.96930443 -25.15792747 31.60067601 -32 47 C-31.40832031 46.38511719 -30.81664062 45.77023438 -30.20703125 45.13671875 C-29.02173828 43.92435547 -29.02173828 43.92435547 -27.8125 42.6875 C-27.03519531 41.88699219 -26.25789063 41.08648437 -25.45703125 40.26171875 C-22.02292162 37.10059081 -19.45713213 35.11208709 -14.75 34.75 C-12 35 -12 35 -11 36 C-10.4393448 41.98537311 -11.84338001 45.5434231 -14.625 50.625 C-15.35933058 52.03450174 -16.09238705 53.44466794 -16.82421875 54.85546875 C-17.37408447 55.90033447 -17.37408447 55.90033447 -17.93505859 56.96630859 C-22.06950779 64.86176063 -25.69322299 71.9500782 -26 81 C-27.875 80.6875 -27.875 80.6875 -30 80 C-32.9506288 75.5740568 -32.96435097 72.19463724 -32 67 C-29.61970031 60.74175556 -26.26861975 54.79984244 -22.84179688 49.06005859 C-20.55653141 45.30062718 -20.55653141 45.30062718 -20 41 C-21.19390875 41.99233974 -22.37966913 42.99448154 -23.5625 44 C-24.22378906 44.556875 -24.88507813 45.11375 -25.56640625 45.6875 C-32.39844464 52.17958142 -37.43258086 59.4442699 -42.375 67.4375 C-43.61105178 69.41594428 -44.84798167 71.39384032 -46.0859375 73.37109375 C-46.6226709 74.23661865 -47.1594043 75.10214355 -47.71240234 75.99389648 C-49 78 -49 78 -50 79 C-52.33297433 79.04092937 -54.66705225 79.04241723 -57 79 C-56.39960871 75.02969942 -55.15737291 72.07240055 -53.2265625 68.5625 C-52.36853027 66.98807129 -52.36853027 66.98807129 -51.49316406 65.38183594 C-50.87666992 64.26583008 -50.26017578 63.14982422 -49.625 62 C-48.33979513 59.65176489 -47.0557309 57.30294702 -45.7734375 54.953125 C-45.45149414 54.36460754 -45.12955078 53.77609009 -44.79785156 53.16973877 C-42.31273458 48.61332342 -39.93994906 44.00662554 -37.59033203 39.37939453 C-17.51671309 0 -17.51671309 0 0 0 Z " fill="#AD789F" transform="translate(490,200)"/>
<path d="M0 0 C-1 3 -1 3 -3.5625 4.625 C-17.66085377 13.62109241 -25.6354395 32.61908517 -33 47 C-29.43682631 44.1727658 -25.97168041 41.26566244 -22.55078125 38.26953125 C-19.16116985 35.49466045 -16.2672017 35.92097775 -12 36 C-9.64958717 44.82188282 -15.33921693 52.86511586 -19.625 60.3125 C-20.21933838 61.3166394 -20.21933838 61.3166394 -20.82568359 62.34106445 C-24.49256935 68.58503815 -26.29507408 73.62314808 -26 81 C-28.375 80.75 -28.375 80.75 -31 80 C-33.52984439 76.19254189 -33.15344025 73.08745642 -32.6015625 68.7109375 C-30.94730985 61.25605866 -26.33868647 54.7200668 -22.33203125 48.32421875 C-20.96873992 45.94545528 -19.95812028 43.56558273 -19 41 C-27.31646444 46.0710149 -32.84567788 52.73537555 -38.0625 60.875 C-39.05338542 62.39322917 -40.04427083 63.91145833 -41.03515625 65.4296875 C-42.57252665 67.79747357 -44.10740099 70.16672633 -45.63623047 72.54003906 C-46.16748535 73.3544043 -46.69874023 74.16876953 -47.24609375 75.0078125 C-47.72618896 75.74918457 -48.20628418 76.49055664 -48.70092773 77.25439453 C-50 79 -50 79 -52 80 C-53.99960012 80.039992 -56.00047242 80.04346799 -58 80 C-57.28780784 76.30682258 -55.73329233 73.29606619 -54.0078125 69.96875 C-53.70613663 69.38472916 -53.40446075 68.80070831 -53.09364319 68.19898987 C-52.10895491 66.29675722 -51.11758319 64.39812379 -50.125 62.5 C-49.78675201 61.85094696 -49.44850403 61.20189392 -49.1000061 60.53317261 C-47.05574655 56.61113596 -45.00159275 52.69442413 -42.93914795 48.78192139 C-42.08308964 47.1576527 -41.22917348 45.53225548 -40.37548828 43.90673828 C-17.21427865 0 -17.21427865 0 0 0 Z " fill="#AD789F" transform="translate(560,199)"/>
<path d="M0 0 C1.97226562 0.00966797 1.97226562 0.00966797 3.984375 0.01953125 C7.25 0.1875 7.25 0.1875 9.25 1.1875 C8.59676006 4.46586605 7.38827241 6.94273379 5.703125 9.8203125 C5.1875 10.70976562 4.671875 11.59921875 4.140625 12.515625 C3.32851563 13.90007812 3.32851563 13.90007812 2.5 15.3125 C-5.7630544 28.55097006 -5.7630544 28.55097006 -10.0625 43.3125 C-10.20300781 44.42882812 -10.34351563 45.54515625 -10.48828125 46.6953125 C-10.57464844 47.51773438 -10.66101563 48.34015625 -10.75 49.1875 C-12.625 48.9375 -12.625 48.9375 -14.75 48.1875 C-17.15040308 44.95676882 -16.96009886 41.85204762 -16.875 37.9375 C-16.85695313 36.85984375 -16.83890625 35.7821875 -16.8203125 34.671875 C-16.79710937 33.85203125 -16.77390625 33.0321875 -16.75 32.1875 C-17.24628906 32.71859375 -17.74257813 33.2496875 -18.25390625 33.796875 C-27.73102149 43.6516362 -27.73102149 43.6516362 -34.5625 44.5625 C-36.75 44.1875 -36.75 44.1875 -38.75 42.1875 C-40.38497137 32.13052495 -35.94478838 24.327371 -30.37890625 16.3203125 C-22.55729704 6.07906879 -13.14323113 -0.14286121 0 0 Z M-15.75 10.75 C-21.53034999 16.75526633 -28.49041552 25.34684918 -28.875 34 C-28.83375 34.721875 -28.7925 35.44375 -28.75 36.1875 C-20.00967599 33.80377527 -14.44392821 24.47958753 -9.375 17.5625 C-8.74722656 16.72976562 -8.11945313 15.89703125 -7.47265625 15.0390625 C-6.87582031 14.22953125 -6.27898437 13.42 -5.6640625 12.5859375 C-5.1273291 11.86067871 -4.5905957 11.13541992 -4.03759766 10.38818359 C-2.62552834 7.97476062 -2.14323788 5.94016514 -1.75 3.1875 C-7.5110221 3.1875 -11.7285436 6.94718589 -15.75 10.75 Z " fill="#7F6D95" transform="translate(330.75,230.8125)"/>
<path d="M0 0 C0.95003906 -0.00257813 1.90007813 -0.00515625 2.87890625 -0.0078125 C5.4375 0.125 5.4375 0.125 8.4375 1.125 C7.8500821 5.06039101 6.64864104 7.87248007 4.63671875 11.29296875 C4.07146484 12.26943359 3.50621094 13.24589844 2.92382812 14.25195312 C2.0334082 15.76692383 2.0334082 15.76692383 1.125 17.3125 C-6.79448504 30.22758313 -6.79448504 30.22758313 -10.3125 44.75 C-10.36921875 45.58789062 -10.4259375 46.42578125 -10.484375 47.2890625 C-10.51015625 47.89492188 -10.5359375 48.50078125 -10.5625 49.125 C-12.94056889 48.17377244 -14.314979 47.4768223 -15.8046875 45.359375 C-16.7437255 42.59066502 -16.75697128 40.29279379 -16.6875 37.375 C-16.66945313 36.39015625 -16.65140625 35.4053125 -16.6328125 34.390625 C-16.60960937 33.64296875 -16.58640625 32.8953125 -16.5625 32.125 C-17.15417969 32.73988281 -17.74585938 33.35476563 -18.35546875 33.98828125 C-19.54076172 35.20064453 -19.54076172 35.20064453 -20.75 36.4375 C-21.52730469 37.23800781 -22.30460938 38.03851563 -23.10546875 38.86328125 C-26.50090987 41.98881449 -29.10951291 43.98255029 -33.75 44.4375 C-36.5625 44.125 -36.5625 44.125 -38.5625 42.125 C-40.16226642 33.49370213 -36.335132 25.74613181 -31.9375 18.5625 C-24.25462517 7.64778614 -13.59037043 -0.0369806 0 0 Z M-3.5625 3.125 C-15.18424277 7.73362213 -22.68065598 17.54408164 -27.75 28.75 C-28.736623 31.63397492 -28.70326409 34.09857207 -28.5625 37.125 C-20.34685425 32.89269764 -14.98853688 25.37185004 -9.75 18 C-9.17830078 17.21496094 -8.60660156 16.42992187 -8.01757812 15.62109375 C-5.32153718 11.86374409 -3.17140666 8.48870129 -1.5625 4.125 C-2.2225 3.795 -2.8825 3.465 -3.5625 3.125 Z " fill="#B95A64" transform="translate(933.5625,230.875)"/>
<path d="M0 0 C-0.52810146 5.10165939 -3.05046311 8.74108988 -5.6875 13 C-12.2830297 23.98037918 -17.64409886 34.02542874 -19 47 C-22.875 45.25 -22.875 45.25 -24 43 C-24.07092842 40.7927077 -24.08415025 38.58332548 -24.0625 36.375 C-24.05347656 35.18648438 -24.04445313 33.99796875 -24.03515625 32.7734375 C-24.02355469 31.85820312 -24.01195312 30.94296875 -24 30 C-24.3403125 30.44730469 -24.680625 30.89460938 -25.03125 31.35546875 C-28.72132975 35.95825439 -32.54404046 39.59677973 -38 42 C-41.5 42.3125 -41.5 42.3125 -44 42 C-46.7288963 37.60056263 -45.8886094 34.20324657 -44.94921875 29.296875 C-41.59258884 17.6384567 -33.36066922 7.9732195 -22.921875 1.96484375 C-16.01446742 -1.50289949 -7.39677541 -2.4655918 0 0 Z M-28 14 C-32.66705212 20.71288319 -35.7850049 26.90003267 -37 35 C-30.44889134 34.33104876 -27.48766617 29.8233759 -23.51660156 24.95458984 C-14.11344261 14.28611475 -14.11344261 14.28611475 -9 2 C-17.05487297 1.05236789 -23.2082089 8.32186604 -28 14 Z " fill="#AD789F" transform="translate(588,234)"/>
<path d="M0 0 C2.31 0 4.62 0 7 0 C8 2 8 2 7.44140625 4.1640625 C7.15136719 4.97617188 6.86132812 5.78828125 6.5625 6.625 C6.13130859 7.85089844 6.13130859 7.85089844 5.69140625 9.1015625 C5.46324219 9.72804687 5.23507812 10.35453125 5 11 C5.77923828 10.18595703 5.77923828 10.18595703 6.57421875 9.35546875 C15.57756267 0.11913626 15.57756267 0.11913626 21.8125 -0.1875 C22.864375 -0.125625 23.91625 -0.06375 25 0 C27.24850555 8.55931113 21.5186533 16.02306406 17.375 23.25 C16.78066162 24.25994019 16.78066162 24.25994019 16.17431641 25.2902832 C13.16884862 30.44879823 10.99664283 35.36578597 10.375 41.375 C10.25125 42.57125 10.1275 43.7675 10 45 C8.125 44.6875 8.125 44.6875 6 44 C3.49171816 40.23757724 3.40239064 37.35182202 4 33 C5.95484689 26.56632669 9.78045016 20.72078334 13.18164062 14.96044922 C15.08556543 11.71845781 16.71133968 8.533852 18 5 C7.06808927 12.05957178 0.24228116 22.81055089 -6.73828125 33.51953125 C-7.11903809 34.10025391 -7.49979492 34.68097656 -7.89208984 35.27929688 C-8.97769958 36.96536506 -10.01874342 38.67986344 -11.05859375 40.39453125 C-13 43 -13 43 -16.75 43.875 C-17.8225 43.91625 -18.895 43.9575 -20 44 C-20 39.21108379 -18.31732614 36.24051943 -16.1328125 32.12890625 C-15.73802704 31.36956284 -15.34324158 30.61021942 -14.93649292 29.8278656 C-13.6736228 27.40200432 -12.39983582 24.98209125 -11.125 22.5625 C-9.85932232 20.14548411 -8.5959725 17.72728366 -7.33493042 15.30784607 C-6.55009066 13.80364791 -5.76223842 12.30101665 -4.97097778 10.80018616 C-3.11463143 7.25758976 -1.39372208 3.75772797 0 0 Z " fill="#AD789F" transform="translate(716,233)"/>
<path d="M0 0 C-1.19413412 3.58240235 -1.82894463 3.67029727 -5 5.4375 C-23.31906913 17.29272037 -33.26902846 46.90183219 -42.8361969 65.51533508 C-44.11738189 68.00671688 -45.40122503 70.49672474 -46.68521118 72.98666382 C-47.61179432 74.7868438 -48.53387724 76.58928106 -49.45581055 78.3918457 C-50.01953369 79.48585693 -50.58325684 80.57986816 -51.1640625 81.70703125 C-51.66373535 82.6813208 -52.1634082 83.65561035 -52.67822266 84.65942383 C-54 87 -54 87 -56 89 C-58.68839385 89.26991906 -61.29141936 89.08737357 -64 89 C-63.42669881 85.6196272 -62.60354173 82.83071267 -61.06640625 79.76953125 C-60.67018066 78.97619385 -60.27395508 78.18285645 -59.86572266 77.36547852 C-59.22062744 76.10175415 -59.22062744 76.10175415 -58.5625 74.8125 C-58.11438965 73.9268335 -57.6662793 73.04116699 -57.20458984 72.12866211 C-53.11215991 64.10197416 -48.79580132 56.2142427 -44.34472656 48.38183594 C-42.89753363 45.81850729 -41.47558888 43.2420497 -40.0546875 40.6640625 C-17.48327017 0 -17.48327017 0 0 0 Z " fill="#B95A64" transform="translate(1014,187)"/>
<path d="M0 0 C0 0.99 0 1.98 0 3 C-0.969375 3.45375 -1.93875 3.9075 -2.9375 4.375 C-13.39690832 10.45703019 -19.31779329 21.73930968 -25 32 C-25.50660156 32.91313965 -26.01320313 33.8262793 -26.53515625 34.76708984 C-32.1778788 44.99369074 -37.69984165 55.271163 -42.8359375 65.76171875 C-43.14982925 66.40056503 -43.46372101 67.03941132 -43.78712463 67.69761658 C-45.30684849 70.79452817 -46.81197578 73.89717928 -48.29370117 77.01245117 C-48.83744385 78.12982666 -49.38118652 79.24720215 -49.94140625 80.3984375 C-50.64825562 81.87836182 -50.64825562 81.87836182 -51.36938477 83.38818359 C-53.23279171 86.37287104 -55.07365942 88.06273698 -58 90 C-61.3125 90.25 -61.3125 90.25 -64 90 C-63.38704055 86.13437973 -62.22288481 83.06006597 -60.48046875 79.5625 C-59.69796753 77.98843384 -59.69796753 77.98843384 -58.8996582 76.38256836 C-58.334646 75.2663208 -57.76963379 74.15007324 -57.1875 73 C-56.60508545 71.84314697 -56.0226709 70.68629395 -55.42260742 69.49438477 C-50.39639683 59.60304701 -45.02269981 49.95302547 -39.39355469 40.39453125 C-38.03528282 38.06062612 -36.71939393 35.70759385 -35.4140625 33.34375 C-30.23501719 24.0615878 -24.65042293 16.42645061 -17 9 C-16.33871094 8.35289062 -15.67742188 7.70578125 -14.99609375 7.0390625 C-10.67612527 3.0766753 -6.04855062 0 0 0 Z " fill="#B95A64" transform="translate(994,187)"/>
<path d="M0 0 C2.49378207 3.74067311 2.20174915 5.41973865 1.6015625 9.71875 C0.01994519 15.71657148 -4.92135181 19.00797468 -10 22 C-13.26172585 22.90603496 -16.46044162 23.6398598 -19.78515625 24.24609375 C-21.99889383 24.68241572 -21.99889383 24.68241572 -25 26 C-27.35093126 30.6023522 -26.99951405 34.00242975 -26 39 C-22.95012475 39.44632321 -20.81385192 39.53556707 -18.18359375 37.8046875 C-16.38774816 36.26095846 -14.68047351 34.66826668 -13 33 C-12.195625 32.21625 -11.39125 31.4325 -10.5625 30.625 C-10.046875 30.08875 -9.53125 29.5525 -9 29 C-8.38671875 30.78515625 -8.38671875 30.78515625 -8 33 C-11.44587986 39.5352894 -16.00827746 42.70315338 -23 45 C-26.49413096 45.61484708 -29.52427777 45.76110706 -33 45 C-35.97043983 42.87825726 -36.76211425 41.40706893 -37.3671875 37.828125 C-37.8969061 28.04391084 -34.20911147 19.52295232 -27.9765625 12.13671875 C-20.34105843 3.88252759 -11.91116363 -3.47408939 0 0 Z M-14.92578125 7.8515625 C-20.57780151 13.65740588 -20.57780151 13.65740588 -23 21 C-17.47715598 20.8619289 -14.64227645 18.51982487 -10.76953125 14.90625 C-7.22527245 11.08815222 -6 8.17294574 -6 3 C-10.28528851 3 -11.83899302 5.0557654 -14.92578125 7.8515625 Z " fill="#7F6D95" transform="translate(260,231)"/>
<path d="M0 0 C2 2 2 2 2.375 5.75 C2.20436981 11.00161799 0.1038614 13.9753428 -3.66015625 17.59765625 C-9.84314072 22.76495539 -16.9782928 25 -25 25 C-25.19393875 27.14526099 -25.37998676 29.29123677 -25.5625 31.4375 C-25.66691406 32.63246094 -25.77132812 33.82742188 -25.87890625 35.05859375 C-25.91886719 36.02925781 -25.95882812 36.99992187 -26 38 C-25.67 38.33 -25.34 38.66 -25 39 C-20.72952426 38.83575093 -18.56022341 38.47109696 -15.25 35.6875 C-13.88818104 34.06088291 -12.56301303 32.40116601 -11.3125 30.6875 C-10.879375 30.130625 -10.44625 29.57375 -10 29 C-9.34 29 -8.68 29 -8 29 C-8 32.84578035 -8.12871553 34.98214431 -10.671875 37.953125 C-16.86620008 43.49541586 -21.36117763 45.18173483 -29.59765625 45.4609375 C-32.88963101 44.82930657 -34.0210303 43.67452595 -36 41 C-37.97436401 31.09914519 -34.35716607 22.57327134 -29.25 14.3125 C-24.27296682 7.21142993 -17.92713289 1.8237332 -9.5625 -0.75 C-6.20483877 -1.07757671 -3.29597445 -0.68407017 0 0 Z M-14.92578125 7.77734375 C-18.32879671 11.42388951 -20.67042651 15.61440142 -23 20 C-21.14208158 20.64987368 -21.14208158 20.64987368 -19 21 C-14.03358022 18.40882446 -10.00878957 14.75487402 -7 10 C-6.27208962 7.55460174 -6.10511655 5.57535558 -6 3 C-10.27329089 3 -11.83645625 4.99638021 -14.92578125 7.77734375 Z " fill="#B95A64" transform="translate(1012,230)"/>
<path d="M0 0 C-0.40992188 0.73605469 -0.81984375 1.47210938 -1.2421875 2.23046875 C-1.78101563 3.20628906 -2.31984375 4.18210938 -2.875 5.1875 C-3.40867187 6.15042969 -3.94234375 7.11335937 -4.4921875 8.10546875 C-6.5996223 12.15108841 -8.16174735 15.75718228 -8.625 20.3125 C-8.810625 22.1378125 -8.810625 22.1378125 -9 24 C-11.8125 23.4375 -11.8125 23.4375 -15 22 C-16.44088563 19.71463927 -17.13569208 17.59292376 -18 15 C-18.66 15 -19.32 15 -20 15 C-20.38478516 15.86818359 -20.38478516 15.86818359 -20.77734375 16.75390625 C-22.1147796 19.2108571 -23.63738445 20.91126727 -25.5625 22.9375 C-29.88736763 27.68854072 -33.43339312 32.76946909 -37.01953125 38.08203125 C-37.67308594 39.04496094 -38.32664062 40.00789063 -39 41 C-39.495 41.77214844 -39.99 42.54429687 -40.5 43.33984375 C-43.14361105 46.26571536 -46.20996129 45.75147287 -50 46 C-50.33 45.34 -50.66 44.68 -51 44 C-49.81591797 41.34545898 -49.81591797 41.34545898 -47.9921875 37.99609375 C-47.66969025 37.39877945 -47.34719299 36.80146515 -47.0149231 36.18605042 C-45.97573759 34.26571173 -44.92551524 32.35165998 -43.875 30.4375 C-43.18938136 29.17422014 -42.50447717 27.91055226 -41.8203125 26.64648438 C-38.59584193 20.70205289 -35.34917338 14.77613254 -31.91455078 8.94946289 C-30.87316658 6.94094538 -30.87316658 6.94094538 -30.49560547 4.31811523 C-30.33205566 3.55313721 -30.16850586 2.78815918 -30 2 C-27.04335481 0.5216774 -24.25770263 0.93967217 -21 1 C-19.60788785 5.17633644 -21.0464421 6.78960515 -22.9375 10.6875 C-23.78634766 12.45673828 -23.78634766 12.45673828 -24.65234375 14.26171875 C-25.09707031 15.16535156 -25.54179687 16.06898438 -26 17 C-25.38253906 16.27554688 -24.76507813 15.55109375 -24.12890625 14.8046875 C-9.24243745 -2.18899834 -9.24243745 -2.18899834 0 0 Z " fill="#7F6D95" transform="translate(302,231)"/>
<path d="M0 0 C-1.7989503 5.07634826 -4.49026455 9.63713611 -7.125 14.3125 C-7.59292969 15.14845703 -8.06085938 15.98441406 -8.54296875 16.84570312 C-9.6926259 18.89866233 -10.84503802 20.95002202 -12 23 C-10.02 23 -8.04 23 -6 23 C-7 26 -7 26 -9 27 C-10.99960012 27.039992 -13.00047242 27.04346799 -15 27 C-15.23460937 27.7940625 -15.46921875 28.588125 -15.7109375 29.40625 C-17.3445605 33.96059292 -19.44363564 38.18643802 -21.625 42.5 C-22.0694043 43.37914062 -22.51380859 44.25828125 -22.97167969 45.1640625 C-24.3042254 47.7814608 -25.648516 50.39233545 -27 53 C-27.3805957 53.73605469 -27.76119141 54.47210938 -28.15332031 55.23046875 C-29.16580043 57.16514414 -30.20122759 59.08480507 -31.25 61 C-31.83265625 62.0725 -32.4153125 63.145 -33.015625 64.25 C-35.88777055 68.23029619 -39.12530952 70.51095031 -43.875 71.75 C-44.57625 71.8325 -45.2775 71.915 -46 72 C-46.71484375 70.36401367 -46.71484375 70.36401367 -47 68 C-45.62890625 65.28637695 -45.62890625 65.28637695 -43.5625 62.17578125 C-42.81162666 61.01477424 -42.06435233 59.85143328 -41.3203125 58.68603516 C-40.93391602 58.08180725 -40.54751953 57.47757935 -40.14941406 56.8550415 C-38.28214221 53.84144797 -36.60452911 50.73310108 -34.9375 47.60546875 C-34.61144775 46.99486603 -34.28539551 46.38426331 -33.94946289 45.75515747 C-32.96307298 43.90096822 -31.98141372 42.04432699 -31 40.1875 C-30.3141876 38.89758142 -29.62799116 37.60786694 -28.94140625 36.31835938 C-27.28986433 33.21456533 -25.64344063 30.10809289 -24 27 C-26.31 27 -28.62 27 -31 27 C-30.67 26.01 -30.34 25.02 -30 24 C-28.1796875 23.7265625 -28.1796875 23.7265625 -25.875 23.625 C-22.23384275 22.95668633 -21.24995341 22.35853973 -19.09375 19.265625 C-17.93289628 16.9755772 -16.80196247 14.67015185 -15.69921875 12.3515625 C-12.14414614 5.33948825 -8.17728789 -0.21519179 0 0 Z " fill="#B95A64" transform="translate(1051,204)"/>
<path d="M0 0 C-1 2 -1 2 -4.125 3.625 C-18.00941315 11.45434454 -25.93313178 31.29263864 -32.82052612 44.97000122 C-33.96763177 47.24731981 -35.12428494 49.51956823 -36.28344727 51.79077148 C-37.82091935 54.80461414 -39.35559526 57.81984105 -40.88671875 60.83691406 C-43.72058506 66.42064004 -46.56498141 71.99852277 -49.4375 77.5625 C-49.86732178 78.41158936 -50.29714355 79.26067871 -50.73999023 80.13549805 C-51.13387939 80.89644775 -51.52776855 81.65739746 -51.93359375 82.44140625 C-52.26415771 83.08795166 -52.59472168 83.73449707 -52.93530273 84.40063477 C-54 86 -54 86 -57 88 C-60.1875 88.125 -60.1875 88.125 -63 88 C-62.42669881 84.6196272 -61.60354173 81.83071267 -60.06640625 78.76953125 C-59.67001953 77.97595215 -59.27363281 77.18237305 -58.86523438 76.36474609 C-58.43533203 75.52250488 -58.00542969 74.68026367 -57.5625 73.8125 C-57.11583984 72.92900879 -56.66917969 72.04551758 -56.20898438 71.13525391 C-52.0907773 63.05334473 -47.71502009 55.12936754 -43.25 47.23535156 C-41.97651546 44.95800304 -40.73466593 42.66578822 -39.5 40.3671875 C-17.20642462 -0.96428299 -17.20642462 -0.96428299 0 0 Z " fill="#AD789F" transform="translate(548,191)"/>
<path d="M0 0 C-1.12857644 2.86484788 -2.30787517 5.65127441 -3.625 8.4375 C-4.9826073 11.95493709 -5.27222652 14.27957095 -5 18 C-3.02 18 -1.04 18 1 18 C0 21 0 21 -2 22 C-4.3329866 22.04022391 -6.66706666 22.04320247 -9 22 C-9.185625 22.78375 -9.37125 23.5675 -9.5625 24.375 C-13.08234868 33.25114016 -19.21457291 40.67337942 -27.5 45.4375 C-31.02846777 46.23140525 -33.52105957 45.96637234 -37 45 C-39.68633457 42.14035352 -39.97840606 40.21234045 -40.375 36.3125 C-39.94259326 26.72748388 -36.12160773 17.6897859 -29.0078125 11.17578125 C-24.61671308 7.75403774 -20.68046843 4.89059313 -14.9375 5.125 C-11.87690026 5.29871414 -11.87690026 5.29871414 -9.75 3.0625 C-8.88375 2.0415625 -8.88375 2.0415625 -8 1 C-5.29120665 -0.35439668 -2.99066732 -0.06501451 0 0 Z M-19.28125 10.1875 C-25.55972546 16.80843775 -30.65790917 25.69759221 -31.25 34.875 C-31.20394863 37.90415529 -31.20394863 37.90415529 -30 40 C-26.5916052 40.08520987 -24.55159138 39.47445313 -21.9609375 37.24609375 C-16.83399523 31.72550985 -12.01983833 25.91990682 -11.98828125 18.09375 C-12.22823451 15.3718921 -12.5926688 12.70078296 -13 10 C-13 9.01 -13 8.02 -13 7 C-15.81839963 7 -17.21247386 8.40267352 -19.28125 10.1875 Z " fill="#AD789F" transform="translate(706,231)"/>
<path d="M0 0 C-0.69266561 3.63649445 -2.25160339 6.50537936 -4 9.75 C-6.52768466 14.68442748 -7.78781791 18.48326555 -8 24 C-12.75 23.25 -12.75 23.25 -15 21 C-15.40047444 18.67724823 -15.7397104 16.34260643 -16 14 C-23.69509656 22.06684036 -30.04154926 30.78129197 -36.33789062 39.94775391 C-39.77953901 44.88976951 -39.77953901 44.88976951 -42 46 C-43.99960012 46.039992 -46.00047242 46.04346799 -48 46 C-46.53263204 41.11697016 -44.49066795 36.82073329 -42.12109375 32.3359375 C-41.74896255 31.6214444 -41.37683136 30.90695129 -40.99342346 30.17080688 C-39.8122805 27.9033334 -38.62558396 25.63884348 -37.4375 23.375 C-35.86883697 20.38532027 -34.3058167 17.39278903 -32.74609375 14.3984375 C-32.3856749 13.71607025 -32.02525604 13.033703 -31.65391541 12.33065796 C-29.74920225 8.72161165 -29.74920225 8.72161165 -28.52235413 4.85073853 C-28.34997726 4.23999481 -28.1776004 3.6292511 -28 3 C-25.29120665 1.64560332 -22.99066732 1.93498549 -20 2 C-19 4 -19 4 -19.7421875 6.27734375 C-20.11601563 7.15519531 -20.48984375 8.03304687 -20.875 8.9375 C-22.00436445 11.61875336 -23.0793992 14.23819761 -24 17 C-23.38253906 16.27554688 -22.76507812 15.55109375 -22.12890625 14.8046875 C-8.66960021 -0.55981712 -8.66960021 -0.55981712 0 0 Z " fill="#AD789F" transform="translate(621,232)"/>
<path d="M0 0 C3.3 0 6.6 0 10 0 C10.26216309 0.7113208 10.52432617 1.4226416 10.79443359 2.15551758 C11.98393619 5.37601301 13.1793939 8.59426578 14.375 11.8125 C14.99375 13.49182617 14.99375 13.49182617 15.625 15.20507812 C16.22441406 16.81479492 16.22441406 16.81479492 16.8359375 18.45703125 C17.38580322 19.9416687 17.38580322 19.9416687 17.94677734 21.45629883 C18.97536077 24.17342471 18.97536077 24.17342471 21 27 C24.3 18.09 27.6 9.18 31 0 C34.3 0 37.6 0 41 0 C41 0.99 41 1.98 41 3 C39.68 3 38.36 3 37 3 C37 12.57 37 22.14 37 32 C38.32 32.33 39.64 32.66 41 33 C41 33.99 41 34.98 41 36 C37.04 36 33.08 36 29 36 C29.33 34.68 29.66 33.36 30 32 C30.99 32 31.98 32 33 32 C32.67 24.74 32.34 17.48 32 10 C31.40832031 11.79308594 30.81664062 13.58617188 30.20703125 15.43359375 C29.40994065 17.76860034 28.61170414 20.10321597 27.8125 22.4375 C27.23145508 24.21350586 27.23145508 24.21350586 26.63867188 26.02539062 C26.24873047 27.15009766 25.85878906 28.27480469 25.45703125 29.43359375 C25.10616455 30.47572021 24.75529785 31.51784668 24.39379883 32.59155273 C23.93384521 33.38634033 23.4738916 34.18112793 23 35 C20.525 35.495 20.525 35.495 18 36 C15.03 28.08 12.06 20.16 9 12 C9 18.6 9 25.2 9 32 C9.99 32.33 10.98 32.66 12 33 C12 33.99 12 34.98 12 36 C8.04 36 4.08 36 0 36 C0 35.01 0 34.02 0 33 C1.485 32.505 1.485 32.505 3 32 C3.33 22.43 3.66 12.86 4 3 C2.68 3 1.36 3 0 3 C0 2.01 0 1.02 0 0 Z " fill="#ffffff" transform="translate(507,81)"/>
<path d="M0 0 C0 4.16028531 -0.67398278 5.89058737 -2.4375 9.5625 C-3.77761008 12.37634937 -5.01375093 15.0412528 -6 18 C-9.875 17.125 -9.875 17.125 -11 16 C-11.04315144 13.32461085 -11.04680441 10.67305179 -11 8 C-11 7.01 -11 6.02 -11 5 C-16.64699068 8.76466045 -19.36002835 12.97252494 -22.3125 18.9375 C-22.81813477 19.9574707 -22.81813477 19.9574707 -23.33398438 20.99804688 C-26.35553802 27.34025745 -28.72449666 32.92956369 -27 40 C-22.12262664 39.58193943 -20.1850091 37.5933436 -17 34 C-15.66172696 32.33729713 -14.32810215 30.67083819 -13 29 C-11.68505488 27.64852862 -10.35735142 26.30887458 -9 25 C-9.1233672 30.92162578 -10.91637903 33.86477035 -14.97265625 38.13671875 C-19.89841141 42.66385789 -25.06828588 46.26157412 -32 46 C-34.9375 44.1875 -34.9375 44.1875 -37 41 C-38.67425709 31.97495703 -35.71546532 23.20377715 -30.75 15.75 C-25.13193259 8.23568762 -18.53321241 2.91215973 -9.4375 0.25 C-6.28115116 -0.07372809 -3.17009251 -0.06215868 0 0 Z " fill="#AD789F" transform="translate(789,231)"/>
<path d="M0 0 C3.3 0 6.6 0 10 0 C10.34780518 0.60996826 10.69561035 1.21993652 11.05395508 1.84838867 C12.63956339 4.6284199 14.2260236 7.40796408 15.8125 10.1875 C16.35970703 11.14720703 16.90691406 12.10691406 17.47070312 13.09570312 C18.26831055 14.49272461 18.26831055 14.49272461 19.08203125 15.91796875 C19.56905518 16.77156982 20.0560791 17.6251709 20.55786133 18.50463867 C22.01108516 21.01918087 23.50576562 23.50960936 25 26 C25.33 18.41 25.66 10.82 26 3 C24.68 3 23.36 3 22 3 C22 2.01 22 1.02 22 0 C25.96 0 29.92 0 34 0 C34 0.99 34 1.98 34 3 C32.68 3 31.36 3 30 3 C30 13.89 30 24.78 30 36 C28.35 36 26.7 36 25 36 C23.62231445 34.6015625 23.62231445 34.6015625 22.55078125 32.625 C22.13908691 31.89410156 21.72739258 31.16320312 21.30322266 30.41015625 C20.87315918 29.61480469 20.4430957 28.81945312 20 28 C19.03863422 26.3521327 18.07370181 24.70634171 17.10546875 23.0625 C16.13112409 21.37597431 15.15877351 19.68829624 14.1875 18 C12.475625 15.03 10.76375 12.06 9 9 C8.67 16.59 8.34 24.18 8 32 C9.32 32.33 10.64 32.66 12 33 C12 33.99 12 34.98 12 36 C8.04 36 4.08 36 0 36 C0 35.01 0 34.02 0 33 C1.98 32.505 1.98 32.505 4 32 C4 22.43 4 12.86 4 3 C2.68 3 1.36 3 0 3 C0 2.01 0 1.02 0 0 Z " fill="#ffffff" transform="translate(221,81)"/>
<path d="M0 0 C3.3 0 6.6 0 10 0 C11.97608873 3.52343576 13.95157905 7.04720627 15.92651367 10.57128906 C16.59854934 11.7702747 17.27074892 12.9691685 17.94311523 14.16796875 C18.90912192 15.89038362 19.87449181 17.61315558 20.83984375 19.3359375 C21.42113037 20.37282715 22.00241699 21.4097168 22.60131836 22.47802734 C23.42885974 23.97017299 24.23693731 25.47387461 25 27 C25.33 19.08 25.66 11.16 26 3 C24.68 3 23.36 3 22 3 C22 2.01 22 1.02 22 0 C25.63 0 29.26 0 33 0 C33 0.99 33 1.98 33 3 C32.01 3 31.02 3 30 3 C30 13.89 30 24.78 30 36 C28.02 36 26.04 36 24 36 C23.62190186 35.29915283 23.24380371 34.59830566 22.85424805 33.8762207 C21.13319413 30.68766688 19.41036529 27.50007542 17.6875 24.3125 C17.09259766 23.20970703 16.49769531 22.10691406 15.88476562 20.97070312 C15.30791016 19.90400391 14.73105469 18.83730469 14.13671875 17.73828125 C13.60780029 16.75899658 13.07888184 15.77971191 12.53393555 14.77075195 C11.0814241 12.14707658 9.54292653 9.57154422 8 7 C7.67 15.25 7.34 23.5 7 32 C8.65 32.33 10.3 32.66 12 33 C12 33.99 12 34.98 12 36 C7.71 36 3.42 36 -1 36 C-0.34 34.68 0.32 33.36 1 32 C1.99 32 2.98 32 4 32 C4 22.43 4 12.86 4 3 C2.68 3 1.36 3 0 3 C0 2.01 0 1.02 0 0 Z " fill="#ffffff" transform="translate(583,81)"/>
<path d="M0 0 C3.3 0 6.6 0 10 0 C10.34780518 0.64026123 10.69561035 1.28052246 11.05395508 1.94018555 C12.63901911 4.85656606 14.22574316 7.7720402 15.8125 10.6875 C16.35970703 11.69490234 16.90691406 12.70230469 17.47070312 13.74023438 C18.00244141 14.71669922 18.53417969 15.69316406 19.08203125 16.69921875 C19.56905518 17.59471436 20.0560791 18.49020996 20.55786133 19.4128418 C21.98475253 21.97264645 23.492201 24.48700167 25 27 C25.33 19.08 25.66 11.16 26 3 C24.68 3 23.36 3 22 3 C22 2.01 22 1.02 22 0 C25.63 0 29.26 0 33 0 C33 0.99 33 1.98 33 3 C31.68 3 30.36 3 29 3 C29 13.89 29 24.78 29 36 C27.35 36 25.7 36 24 36 C23.58637207 35.25838623 23.17274414 34.51677246 22.74658203 33.75268555 C21.20817918 30.99578642 19.668672 28.23950783 18.12841797 25.48364258 C17.46261118 24.29183222 16.79724231 23.0997771 16.13232422 21.9074707 C15.17531258 20.19157316 14.21658348 18.47663386 13.2578125 16.76171875 C12.6817627 15.73006592 12.10571289 14.69841309 11.51220703 13.63549805 C10.41061848 11.7156323 9.22780377 9.84170566 8 8 C7.67 15.92 7.34 23.84 7 32 C8.65 32.33 10.3 32.66 12 33 C12 33.99 12 34.98 12 36 C7.71 36 3.42 36 -1 36 C-1 35.01 -1 34.02 -1 33 C1.475 32.505 1.475 32.505 4 32 C4 22.43 4 12.86 4 3 C2.68 3 1.36 3 0 3 C0 2.01 0 1.02 0 0 Z " fill="#ffffff" transform="translate(1037,81)"/>
<path d="M0 0 C2.8125 1.6875 2.8125 1.6875 4.8125 4.6875 C5.35781842 7.75276351 5.35575893 10.62158329 4.8125 13.6875 C2.63090855 16.44319447 0.94072506 18.12338747 -2.1875 19.6875 C-1.1227129 21.69743521 -0.03506779 23.6952761 1.0625 25.6875 C1.66578125 26.80125 2.2690625 27.915 2.890625 29.0625 C3.52484375 29.92875 4.1590625 30.795 4.8125 31.6875 C6.1325 31.6875 7.4525 31.6875 8.8125 31.6875 C8.4825 33.0075 8.1525 34.3275 7.8125 35.6875 C5.5025 35.6875 3.1925 35.6875 0.8125 35.6875 C0.03326172 34.08068359 0.03326172 34.08068359 -0.76171875 32.44140625 C-1.46521171 31.04380024 -2.16969047 29.64669014 -2.875 28.25 C-3.38450195 27.18942383 -3.38450195 27.18942383 -3.90429688 26.10742188 C-4.24912109 25.43388672 -4.59394531 24.76035156 -4.94921875 24.06640625 C-5.25819092 23.4432251 -5.56716309 22.82004395 -5.88549805 22.17797852 C-7.42315381 20.11215998 -7.42315381 20.11215998 -12.1875 19.6875 C-12.1875 23.6475 -12.1875 27.6075 -12.1875 31.6875 C-10.5375 32.0175 -8.8875 32.3475 -7.1875 32.6875 C-7.1875 33.6775 -7.1875 34.6675 -7.1875 35.6875 C-11.8075 35.6875 -16.4275 35.6875 -21.1875 35.6875 C-20.5275 34.3675 -19.8675 33.0475 -19.1875 31.6875 C-18.1975 31.6875 -17.2075 31.6875 -16.1875 31.6875 C-16.1875 22.1175 -16.1875 12.5475 -16.1875 2.6875 C-17.5075 2.6875 -18.8275 2.6875 -20.1875 2.6875 C-20.1875 1.6975 -20.1875 0.7075 -20.1875 -0.3125 C-14.06055196 -2.35481601 -6.04694003 -2.44178762 0 0 Z M-12.1875 1.6875 C-12.1875 6.6375 -12.1875 11.5875 -12.1875 16.6875 C-5.31054597 16.85702361 -5.31054597 16.85702361 -0.1875 13.6875 C1.11996709 12.58826459 1.11996709 12.58826459 1.125 9.875 C1.05003048 6.68919838 1.05003048 6.68919838 -0.625 4.375 C-4.40910114 1.88303096 -7.68828608 1.95215964 -12.1875 1.6875 Z " fill="#ffffff" transform="translate(374.1875,81.3125)"/>
<path d="M0 0 C1.20269531 -0.02578125 2.40539062 -0.0515625 3.64453125 -0.078125 C7.53856229 0.28251294 9.88522623 1.1866815 13.1875 3.25 C15.856447 7.2534205 16.02017518 10.54249972 15.1875 15.25 C12.8125 18.3125 12.8125 18.3125 10.1875 20.25 C9.5275 20.25 8.8675 20.25 8.1875 20.25 C11.6525 26.685 11.6525 26.685 15.1875 33.25 C16.5075 33.25 17.8275 33.25 19.1875 33.25 C18.8575 34.57 18.5275 35.89 18.1875 37.25 C15.8775 37.25 13.5675 37.25 11.1875 37.25 C10.01308465 35.14983377 8.84785988 33.04541245 7.6875 30.9375 C7.35363281 30.34259766 7.01976562 29.74769531 6.67578125 29.13476562 C5.11924886 26.29171156 4.1875 24.54339012 4.1875 21.25 C2.2075 21.25 0.2275 21.25 -1.8125 21.25 C-1.8125 25.21 -1.8125 29.17 -1.8125 33.25 C-0.1625 33.58 1.4875 33.91 3.1875 34.25 C3.1875 35.24 3.1875 36.23 3.1875 37.25 C-1.1025 37.25 -5.3925 37.25 -9.8125 37.25 C-9.8125 36.26 -9.8125 35.27 -9.8125 34.25 C-7.8325 33.755 -7.8325 33.755 -5.8125 33.25 C-5.8125 23.68 -5.8125 14.11 -5.8125 4.25 C-7.1325 4.25 -8.4525 4.25 -9.8125 4.25 C-9.8125 3.26 -9.8125 2.27 -9.8125 1.25 C-6.38258462 0.10669487 -3.6138584 0.04618349 0 0 Z M-1.8125 3.25 C-1.8125 8.2 -1.8125 13.15 -1.8125 18.25 C5.06445403 18.41952361 5.06445403 18.41952361 10.1875 15.25 C11.56521762 14.08524938 11.56521762 14.08524938 11.5 10.875 C11.52263701 7.33893187 11.52263701 7.33893187 9.75 5.375 C5.93439101 3.69985459 2.33828699 3.55520493 -1.8125 3.25 Z " fill="#ffffff" transform="translate(739.8125,79.75)"/>
<path d="M0 0 C3.29006718 1.3341886 4.59365911 2.4393168 6.58984375 5.43359375 C7.13516217 8.49885726 7.13310268 11.36767704 6.58984375 14.43359375 C4.4082523 17.18928822 2.71806881 18.86948122 -0.41015625 20.43359375 C0.68024702 22.44113073 1.78757947 24.43948126 2.90234375 26.43359375 C3.51722656 27.54734375 4.13210938 28.66109375 4.765625 29.80859375 C5.36761719 30.67484375 5.96960938 31.54109375 6.58984375 32.43359375 C7.57984375 32.43359375 8.56984375 32.43359375 9.58984375 32.43359375 C9.58984375 33.75359375 9.58984375 35.07359375 9.58984375 36.43359375 C7.27984375 36.43359375 4.96984375 36.43359375 2.58984375 36.43359375 C1.81060547 34.82677734 1.81060547 34.82677734 1.015625 33.1875 C0.31213204 31.78989399 -0.39234672 30.39278389 -1.09765625 28.99609375 C-1.6071582 27.93551758 -1.6071582 27.93551758 -2.12695312 26.85351562 C-2.47177734 26.17998047 -2.81660156 25.50644531 -3.171875 24.8125 C-3.48084717 24.18931885 -3.78981934 23.5661377 -4.1081543 22.92407227 C-5.64581006 20.85825373 -5.64581006 20.85825373 -10.41015625 20.43359375 C-10.41015625 24.39359375 -10.41015625 28.35359375 -10.41015625 32.43359375 C-8.76015625 32.76359375 -7.11015625 33.09359375 -5.41015625 33.43359375 C-5.41015625 34.42359375 -5.41015625 35.41359375 -5.41015625 36.43359375 C-10.03015625 36.43359375 -14.65015625 36.43359375 -19.41015625 36.43359375 C-19.41015625 35.44359375 -19.41015625 34.45359375 -19.41015625 33.43359375 C-16.93515625 32.93859375 -16.93515625 32.93859375 -14.41015625 32.43359375 C-14.41015625 22.86359375 -14.41015625 13.29359375 -14.41015625 3.43359375 C-15.73015625 3.43359375 -17.05015625 3.43359375 -18.41015625 3.43359375 C-18.41015625 2.44359375 -18.41015625 1.45359375 -18.41015625 0.43359375 C-13.39476473 -2.07410201 -5.35164791 -1.25768063 0 0 Z M-10.41015625 2.43359375 C-10.41015625 7.38359375 -10.41015625 12.33359375 -10.41015625 17.43359375 C-3.48872267 17.7872588 -3.48872267 17.7872588 1.58984375 14.43359375 C2.83822756 11.02830379 2.83822756 11.02830379 2.58984375 7.43359375 C1.3459367 4.85403956 1.3459367 4.85403956 -1.41015625 3.43359375 C-4.44497218 2.81828743 -7.30173646 2.61644197 -10.41015625 2.43359375 Z " fill="#ffffff" transform="translate(487.41015625,80.56640625)"/>
<path d="M0 0 C3.77829096 3.6814117 5.75618291 7.64732342 6.30078125 12.90234375 C6.34582943 24.56982193 6.34582943 24.56982193 1.60546875 29.4296875 C-2.6071879 33.20508105 -5.826969 34.13695022 -11.328125 34.09765625 C-12.12734375 34.09443359 -12.9265625 34.09121094 -13.75 34.08789062 C-14.575 34.07951172 -15.4 34.07113281 -16.25 34.0625 C-17.09046875 34.05798828 -17.9309375 34.05347656 -18.796875 34.04882812 C-20.86461401 34.03707961 -22.93231624 34.01914522 -25 34 C-24.67 32.68 -24.34 31.36 -24 30 C-22.68 30 -21.36 30 -20 30 C-20 20.43 -20 10.86 -20 1 C-21.32 1 -22.64 1 -24 1 C-24 0.01 -24 -0.98 -24 -2 C-15.69171947 -3.70426267 -7.72720633 -3.89463612 0 0 Z M-16 1 C-16.02465746 5.1117256 -16.04283959 9.22342278 -16.05493164 13.33520508 C-16.0599708 14.73495228 -16.06680216 16.1346942 -16.07543945 17.53442383 C-16.0875232 19.54245777 -16.09269807 21.55052957 -16.09765625 23.55859375 C-16.10289307 24.76829834 -16.10812988 25.97800293 -16.11352539 27.22436523 C-16.31775285 29.90812017 -16.31775285 29.90812017 -15 31 C-9.86495296 30.95756159 -4.95299755 30.48793901 -1 27 C1.75827348 22.1492432 2.94647145 17.5315998 2 12 C0.64928655 7.94785966 -1.02546161 4.89100653 -4.1875 2 C-6.99016403 1.00349723 -8.74225653 0.89510037 -11.67578125 0.9375 C-12.89068237 0.95103516 -12.89068237 0.95103516 -14.13012695 0.96484375 C-14.74718506 0.97644531 -15.36424316 0.98804687 -16 1 Z " fill="#ffffff" transform="translate(52,83)"/>
<path d="M0 0 C4.08587763 3.08932211 5.98884295 6.40419695 7.09765625 11.30078125 C8.08535286 18.60065393 7.12478747 24.69274911 3.9375 31.3125 C0.30742577 35.32468731 -3.36151943 36.76574474 -8.74609375 37.06640625 C-12.87647049 36.83655392 -15.23297243 36.06248907 -18.8125 33.875 C-24.0249955 28.04196932 -24.96816523 22.26830263 -24.72265625 14.55078125 C-24.0279405 8.18413966 -21.27798774 4.15741239 -16.4375 -0.0625 C-11.6139104 -2.4742948 -4.97917814 -1.5390187 0 0 Z M-17.4375 5.9375 C-20.82631166 11.96614683 -21.11349904 18.31224205 -19.4375 24.9375 C-17.39574081 28.74878383 -16.02730363 30.54429758 -12.4375 32.9375 C-6.50790111 33.65217045 -6.50790111 33.65217045 -1.5625 30.6875 C3.13470592 24.60876292 3.21065918 19.49260548 2.5625 11.9375 C0.96448153 7.22755081 -1.1662654 4.52010697 -5.4375 1.9375 C-10.62676295 1.0542212 -13.59105202 2.4329585 -17.4375 5.9375 Z " fill="#ffffff" transform="translate(202.4375,81.0625)"/>
<path d="M0 0 C4.004793 2.0023965 6.6587028 4.17998877 9 8 C11.07700205 14.23100615 11.21717511 22.84884722 8.875 29.0625 C6.25007546 33.17488178 3.70673781 36.18797866 -1.109375 37.6328125 C-6.52085542 38.50984553 -11.31019088 37.96030938 -16 35 C-21.89963958 27.73890514 -21.82834161 19.94422792 -21 11 C-19.48388115 6.71586332 -17.13991523 4.07286139 -13.875 1 C-9.26168861 -0.60463005 -4.82241954 -0.64440555 0 0 Z M-15 8 C-18.02418051 14.04836101 -17.78252121 20.48769507 -15.8125 26.8125 C-13.83876088 30.28355846 -12.4701612 32.0283175 -9 34 C-4.43489893 34.74701654 -2.60266811 34.38661728 1.3125 31.875 C5.70408008 27.17703061 6.47490179 22.56779048 6.31640625 16.3125 C5.62031767 11.22503782 3.53774843 7.29494605 -0.375 4 C-6.89439741 1.51642003 -10.24575265 3.0296505 -15 8 Z " fill="#ffffff" transform="translate(447,80)"/>
<path d="M0 0 C1.04027344 -0.01417969 2.08054687 -0.02835937 3.15234375 -0.04296875 C6.01296613 0.18357718 7.63920151 0.71016381 10.0625 2.1875 C10.0625 4.4975 10.0625 6.8075 10.0625 9.1875 C8.7425 9.5175 7.4225 9.8475 6.0625 10.1875 C6.0625 8.2075 6.0625 6.2275 6.0625 4.1875 C-1.98984591 3.60223442 -1.98984591 3.60223442 -8.9375 7.1875 C-12.80786923 11.47255165 -13.24840484 15.37277838 -13.15234375 21.09375 C-12.6924112 25.57600172 -11.16115415 29.00208504 -7.9375 32.125 C-3.2487435 33.78560126 1.10815803 33.3665726 6.0625 33.1875 C6.0625 29.5575 6.0625 25.9275 6.0625 22.1875 C3.4225 22.1875 0.7825 22.1875 -1.9375 22.1875 C-1.9375 21.1975 -1.9375 20.2075 -1.9375 19.1875 C3.3425 19.1875 8.6225 19.1875 14.0625 19.1875 C14.0625 20.1775 14.0625 21.1675 14.0625 22.1875 C12.7425 22.1875 11.4225 22.1875 10.0625 22.1875 C10.0625 26.8075 10.0625 31.4275 10.0625 36.1875 C2.42955477 38.28040434 -4.26086112 38.91582306 -11.8125 36.125 C-15.91328486 32.3860491 -17.6440432 28.56479651 -18.32421875 23.0546875 C-18.55152494 16.29820693 -18.12771448 10.67532928 -13.9375 5.1875 C-9.45856331 0.92704803 -6.07658135 0.03755613 0 0 Z " fill="#ffffff" transform="translate(644.9375,79.8125)"/>
<path d="M0 0 C7.92 0 15.84 0 24 0 C24 2.31 24 4.62 24 7 C23.01 7 22.02 7 21 7 C21 5.68 21 4.36 21 3 C17.04 3 13.08 3 9 3 C9 7.29 9 11.58 9 16 C12.3 16 15.6 16 19 16 C19 15.01 19 14.02 19 13 C19.99 12.67 20.98 12.34 22 12 C22 15.3 22 18.6 22 22 C21.01 22 20.02 22 19 22 C19 21.01 19 20.02 19 19 C15.7 19 12.4 19 9 19 C9 23.29 9 27.58 9 32 C12.96 31.67 16.92 31.34 21 31 C21.33 30.01 21.66 29.02 22 28 C22.99 27.67 23.98 27.34 25 27 C25 29.97 25 32.94 25 36 C16.75 36 8.5 36 0 36 C0 35.01 0 34.02 0 33 C1.98 32.505 1.98 32.505 4 32 C4 22.43 4 12.86 4 3 C3.01 3 2.02 3 1 3 C0.67 2.01 0.34 1.02 0 0 Z " fill="#ffffff" transform="translate(1118,81)"/>
<path d="M0 0 C1.32 0 2.64 0 4 0 C5.70507209 4.37815342 7.40880492 8.75681464 9.109375 13.13671875 C10.26001018 16.0998949 11.41546403 19.06105478 12.578125 22.01953125 C13.02671875 23.16808594 13.4753125 24.31664063 13.9375 25.5 C14.33839844 26.5209375 14.73929688 27.541875 15.15234375 28.59375 C16 31 16 31 16 33 C17.32 33.33 18.64 33.66 20 34 C20 34.99 20 35.98 20 37 C15.71 37 11.42 37 7 37 C7.33 36.01 7.66 35.02 8 34 C8.99 33.505 8.99 33.505 10 33 C9.67 30.36 9.34 27.72 9 25 C4.38 25 -0.24 25 -5 25 C-5.66 27.64 -6.32 30.28 -7 33 C-6.01 33.33 -5.02 33.66 -4 34 C-4 34.99 -4 35.98 -4 37 C-7.96 37 -11.92 37 -16 37 C-15 34 -15 34 -12 32 C-10.90751525 29.6027108 -9.96751463 27.27699365 -9.08203125 24.8046875 C-8.81992355 24.09724396 -8.55781586 23.38980042 -8.2877655 22.66091919 C-7.45335203 20.40225119 -6.63280638 18.13882476 -5.8125 15.875 C-5.24895338 14.34211435 -4.68451088 12.80955773 -4.11914062 11.27734375 C-2.73567226 7.52196711 -1.36461917 3.76226484 0 0 Z M1 7 C-0.65 11.95 -2.3 16.9 -4 22 C-0.37 22 3.26 22 7 22 C6.566875 20.2675 6.13375 18.535 5.6875 16.75 C5.32205078 15.28820312 5.32205078 15.28820312 4.94921875 13.796875 C4.02753861 10.60468325 4.02753861 10.60468325 1 7 Z " fill="#ffffff" transform="translate(1007,80)"/>
<path d="M0 0 C1.32 0 2.64 0 4 0 C4.34780518 0.95890137 4.69561035 1.91780273 5.05395508 2.90576172 C6.34666305 6.46156266 7.65241068 10.01245559 8.9621582 13.56201172 C9.52725508 15.09911416 10.08880437 16.63752566 10.64672852 18.17724609 C11.44920167 20.38993208 12.26430579 22.5976001 13.08203125 24.8046875 C13.32903275 25.49432587 13.57603424 26.18396423 13.83052063 26.89450073 C15.16188855 30.44732893 15.75069596 31.83379731 19 34 C19 34.99 19 35.98 19 37 C15.04 37 11.08 37 7 37 C7 36.01 7 35.02 7 34 C8.485 33.505 8.485 33.505 10 33 C9.34 30.69 8.68 28.38 8 26 C3.71 26 -0.58 26 -5 26 C-5.66 28.31 -6.32 30.62 -7 33 C-6.01 33.33 -5.02 33.66 -4 34 C-4 34.99 -4 35.98 -4 37 C-7.96 37 -11.92 37 -16 37 C-16 36.01 -16 35.02 -16 34 C-15.37077637 33.92450928 -14.74155273 33.84901855 -14.09326172 33.77124023 C-11.8350019 33.21510686 -11.8350019 33.21510686 -11.09814453 31.12133789 C-10.90333496 30.30914795 -10.70852539 29.49695801 -10.5078125 28.66015625 C-8.96053854 22.78198081 -6.96420361 17.14263292 -4.875 11.4375 C-4.33552734 9.94379883 -4.33552734 9.94379883 -3.78515625 8.41992188 C-3.26888672 7.00356445 -3.26888672 7.00356445 -2.7421875 5.55859375 C-2.4313623 4.70579834 -2.12053711 3.85300293 -1.80029297 2.97436523 C-1 1 -1 1 0 0 Z M1 6 C0.16280617 8.29032311 -0.6698929 10.58210957 -1.5 12.875 C-1.73847656 13.52597656 -1.97695313 14.17695312 -2.22265625 14.84765625 C-3.54877533 18.33457589 -3.54877533 18.33457589 -4 22 C-0.37 22 3.26 22 7 22 C5.35 16.72 3.7 11.44 2 6 C1.67 6 1.34 6 1 6 Z " fill="#ffffff" transform="translate(870,80)"/>
<path d="M0 0 C1.32 0 2.64 0 4 0 C5.57277973 4.2152474 7.13917792 8.43278979 8.69970703 12.65258789 C9.2314862 14.08780763 9.7650041 15.52238439 10.30029297 16.95629883 C11.06936227 19.01737601 11.83215096 21.08068392 12.59375 23.14453125 C12.83436157 23.78526077 13.07497314 24.4259903 13.32287598 25.08613586 C14.34897405 27.88352941 15 29.99163868 15 33 C16.32 33.33 17.64 33.66 19 34 C19 34.99 19 35.98 19 37 C15.04 37 11.08 37 7 37 C7 36.01 7 35.02 7 34 C7.99 33.34 8.98 32.68 10 32 C9.34 29.69 8.68 27.38 8 25 C3.38 25 -1.24 25 -6 25 C-6.33 27.64 -6.66 30.28 -7 33 C-6.01 33.33 -5.02 33.66 -4 34 C-4 34.99 -4 35.98 -4 37 C-7.96 37 -11.92 37 -16 37 C-16 36.01 -16 35.02 -16 34 C-14.02 33.505 -14.02 33.505 -12 33 C-11.88140625 32.30616211 -11.7628125 31.61232422 -11.640625 30.89746094 C-10.92945017 27.68091259 -9.89528849 24.72946081 -8.75 21.640625 C-8.08484375 19.84431641 -8.08484375 19.84431641 -7.40625 18.01171875 C-7.17550781 17.39474121 -6.94476562 16.77776367 -6.70703125 16.14208984 C-5.99763405 14.24366847 -5.2952986 12.34274012 -4.59375 10.44140625 C-1.13145439 1.13145439 -1.13145439 1.13145439 0 0 Z M1 7 C0.34865075 8.56020867 -0.29582964 10.12328579 -0.9375 11.6875 C-1.29714844 12.55761719 -1.65679688 13.42773438 -2.02734375 14.32421875 C-3.19727241 17.33340624 -3.19727241 17.33340624 -4 22 C-0.37 22 3.26 22 7 22 C5.35 17.05 3.7 12.1 2 7 C1.67 7 1.34 7 1 7 Z " fill="#ffffff" transform="translate(701,80)"/>
<path d="M0 0 C1.32 0 2.64 0 4 0 C4.34780518 0.95890137 4.69561035 1.91780273 5.05395508 2.90576172 C6.34666305 6.46156266 7.65241068 10.01245559 8.9621582 13.56201172 C9.52725508 15.09911416 10.08880437 16.63752566 10.64672852 18.17724609 C11.44920167 20.38993208 12.26430579 22.5976001 13.08203125 24.8046875 C13.32903275 25.49432587 13.57603424 26.18396423 13.83052063 26.89450073 C15.16188855 30.44732893 15.75069596 31.83379731 19 34 C19 34.99 19 35.98 19 37 C15.04 37 11.08 37 7 37 C7 36.01 7 35.02 7 34 C8.485 33.505 8.485 33.505 10 33 C9.34 30.69 8.68 28.38 8 26 C3.71 26 -0.58 26 -5 26 C-5.66 28.31 -6.32 30.62 -7 33 C-6.01 33.33 -5.02 33.66 -4 34 C-4 34.99 -4 35.98 -4 37 C-7.96 37 -11.92 37 -16 37 C-16 36.01 -16 35.02 -16 34 C-15.37077637 33.92450928 -14.74155273 33.84901855 -14.09326172 33.77124023 C-11.8350019 33.21510686 -11.8350019 33.21510686 -11.09814453 31.12133789 C-10.90333496 30.30914795 -10.70852539 29.49695801 -10.5078125 28.66015625 C-8.96053854 22.78198081 -6.96420361 17.14263292 -4.875 11.4375 C-4.33552734 9.94379883 -4.33552734 9.94379883 -3.78515625 8.41992188 C-3.26888672 7.00356445 -3.26888672 7.00356445 -2.7421875 5.55859375 C-2.4313623 4.70579834 -2.12053711 3.85300293 -1.80029297 2.97436523 C-1 1 -1 1 0 0 Z M1 6 C0.16280617 8.29032311 -0.6698929 10.58210957 -1.5 12.875 C-1.73847656 13.52597656 -1.97695312 14.17695312 -2.22265625 14.84765625 C-3.54877533 18.33457589 -3.54877533 18.33457589 -4 22 C-0.37 22 3.26 22 7 22 C5.35 16.72 3.7 11.44 2 6 C1.67 6 1.34 6 1 6 Z " fill="#ffffff" transform="translate(81,80)"/>
<path d="M0 0 C7.92 0 15.84 0 24 0 C24 2.31 24 4.62 24 7 C23.01 7 22.02 7 21 7 C20.67 6.01 20.34 5.02 20 4 C16.04 3.67 12.08 3.34 8 3 C8 7.29 8 11.58 8 16 C11.3 16 14.6 16 18 16 C18 15.01 18 14.02 18 13 C18.99 12.67 19.98 12.34 21 12 C21 15.3 21 18.6 21 22 C20.01 22 19.02 22 18 22 C18 21.01 18 20.02 18 19 C14.7 19 11.4 19 8 19 C8 23.29 8 27.58 8 32 C12.29 32 16.58 32 21 32 C21 30.68 21 29.36 21 28 C21.99 27.67 22.98 27.34 24 27 C24 29.97 24 32.94 24 36 C15.75 36 7.5 36 -1 36 C-0.67 35.01 -0.34 34.02 0 33 C1.98 32.505 1.98 32.505 4 32 C4 22.43 4 12.86 4 3 C2.68 3 1.36 3 0 3 C0 2.01 0 1.02 0 0 Z " fill="#ffffff" transform="translate(318,81)"/>
<path d="M0 0 C2.97 0 5.94 0 9 0 C8.42334547 3.73710138 7.39222734 6.42373405 5.453125 9.66015625 C4.93975586 10.53067627 4.42638672 11.40119629 3.89746094 12.2980957 C3.35379883 13.21034912 2.81013672 14.12260254 2.25 15.0625 C-6.76770471 29.54781603 -6.76770471 29.54781603 -9 46 C-12.65316671 44.75023244 -13.78065836 44.32901247 -16 41 C-17.4120865 29.90503467 -10.85007345 20.27277275 -5.12329102 11.25170898 C-2.82637096 7.59610316 -1.18737734 4.15264588 0 0 Z " fill="#AD789F" transform="translate(750,233)"/>
<path d="M0 0 C-0.57665453 3.73710138 -1.60777266 6.42373405 -3.546875 9.66015625 C-4.06024414 10.53067627 -4.57361328 11.40119629 -5.10253906 12.2980957 C-5.64620117 13.21034912 -6.18986328 14.12260254 -6.75 15.0625 C-15.76770471 29.54781603 -15.76770471 29.54781603 -18 46 C-20.53903996 45.64978759 -21.82093298 45.15988127 -23.75 43.4375 C-26.08544688 38.88337859 -25.61672713 34.99579752 -24.15625 30.26953125 C-21.4606512 23.37571945 -17.8435589 17.251564 -13.76953125 11.10546875 C-11.88557847 7.799194 -11.01869353 4.64844862 -10 1 C-6.78548731 -0.60725635 -3.56387464 -0.05748185 0 0 Z " fill="#AD789F" transform="translate(497,235)"/>
<path d="M0 0 C2.77376514 2.11682077 4.05071537 3.5753598 5.375 6.8125 C5.90755319 11.78299643 5.5279475 14.87131562 2.375 18.8125 C-0.77515239 20.80897816 -3.18344659 21.03464614 -6.875 20.9375 C-8.4425 20.89625 -10.01 20.855 -11.625 20.8125 C-11.625 24.4425 -11.625 28.0725 -11.625 31.8125 C-9.975 32.1425 -8.325 32.4725 -6.625 32.8125 C-6.625 33.8025 -6.625 34.7925 -6.625 35.8125 C-11.245 35.8125 -15.865 35.8125 -20.625 35.8125 C-20.625 34.8225 -20.625 33.8325 -20.625 32.8125 C-18.15 32.3175 -18.15 32.3175 -15.625 31.8125 C-15.625 22.2425 -15.625 12.6725 -15.625 2.8125 C-16.945 2.8125 -18.265 2.8125 -19.625 2.8125 C-19.955 1.8225 -20.285 0.8325 -20.625 -0.1875 C-14.09047959 -2.16379398 -6.44442463 -2.11110462 0 0 Z M-10.625 1.8125 C-12.01656484 2.97527032 -12.01656484 2.97527032 -11.72265625 6.19140625 C-11.71598369 7.58597077 -11.70402532 8.98051743 -11.6875 10.375 C-11.68298828 11.08591797 -11.67847656 11.79683594 -11.67382812 12.52929688 C-11.66200864 14.29040013 -11.64407263 16.05146036 -11.625 17.8125 C-6.23487754 18.17445182 -6.23487754 18.17445182 -1.1875 16.6875 C1.0101705 14.0502954 1.30670718 12.22714098 1.375 8.8125 C0.03496657 5.53686272 -0.93810961 4.18236406 -4.0625 2.5 C-6.82670803 1.63974762 -6.82670803 1.63974762 -10.625 1.8125 Z " fill="#ffffff" transform="translate(302.625,81.1875)"/>
<path d="M0 0 C7.92 0 15.84 0 24 0 C24 2.64 24 5.28 24 8 C22.68 7.67 21.36 7.34 20 7 C20 5.68 20 4.36 20 3 C16.37 3 12.74 3 9 3 C9 7.62 9 12.24 9 17 C11.97 17 14.94 17 18 17 C18 15.68 18 14.36 18 13 C18.99 13 19.98 13 21 13 C21 16.3 21 19.6 21 23 C20.01 23 19.02 23 18 23 C18 22.01 18 21.02 18 20 C15.03 20 12.06 20 9 20 C9 23.96 9 27.92 9 32 C10.65 32.33 12.3 32.66 14 33 C14 33.99 14 34.98 14 36 C9.38 36 4.76 36 0 36 C0 35.01 0 34.02 0 33 C1.98 32.505 1.98 32.505 4 32 C4 22.43 4 12.86 4 3 C3.01 3 2.02 3 1 3 C0.67 2.01 0.34 1.02 0 0 Z " fill="#ffffff" transform="translate(392,81)"/>
<path d="M0 0 C0.96808594 -0.00257812 1.93617188 -0.00515625 2.93359375 -0.0078125 C5.5625 0.125 5.5625 0.125 8.5625 1.125 C8.2325 3.765 7.9025 6.405 7.5625 9.125 C6.5725 9.125 5.5825 9.125 4.5625 9.125 C4.2325 7.475 3.9025 5.825 3.5625 4.125 C-1.14103479 3.73985213 -1.14103479 3.73985213 -5.4375 5.3125 C-6.64746768 7.14503547 -6.64746768 7.14503547 -6.375 9.625 C-4.72598689 14.02236829 -1.42334037 15.13210766 2.625 17 C6.25490486 18.79129383 8.10252093 20.20130624 9.5625 24.125 C10.07453184 28.22125474 10.01386958 30.34378343 7.9375 33.9375 C4.48150568 37.12065266 1.75750628 38.18916172 -2.9765625 38.05078125 C-9.78234266 37.45257867 -9.78234266 37.45257867 -12.4375 36.125 C-12.4375 33.155 -12.4375 30.185 -12.4375 27.125 C-11.1175 27.125 -9.7975 27.125 -8.4375 27.125 C-8.1075 29.105 -7.7775 31.085 -7.4375 33.125 C-6.00094146 33.20631463 -4.5630517 33.26433559 -3.125 33.3125 C-2.32449219 33.34730469 -1.52398438 33.38210937 -0.69921875 33.41796875 C1.62544908 33.30270943 1.62544908 33.30270943 3.359375 31.80078125 C4.86132812 30.0625 4.86132812 30.0625 4.5 27.125 C3.38449369 23.55537982 2.77506272 22.93721486 -0.4375 21.125 C-1.79119319 20.47817483 -3.14540198 19.8324281 -4.5 19.1875 C-9.94666335 16.47938247 -9.94666335 16.47938247 -11.4375 13.125 C-11.88835198 10.36281825 -11.96357809 7.87983903 -11.4375 5.125 C-8.02430008 0.6878401 -5.42257497 -0.01440259 0 0 Z " fill="#ffffff" transform="translate(817.4375,79.875)"/>
<path d="M0 0 C3.96 0 7.92 0 12 0 C12 0.99 12 1.98 12 3 C11.01 3 10.02 3 9 3 C10.98 6.96 12.96 10.92 15 15 C17.15016583 12.13311223 18.67007588 9.88949817 20.1875 6.75 C20.53167969 6.04359375 20.87585938 5.3371875 21.23046875 4.609375 C21.61138672 3.81273438 21.61138672 3.81273438 22 3 C21.01 2.67 20.02 2.34 19 2 C19 1.34 19 0.68 19 0 C22.63 0 26.26 0 30 0 C30 0.99 30 1.98 30 3 C29.01 3.33 28.02 3.66 27 4 C25.30685668 6.41495706 23.82026575 8.75479638 22.375 11.3125 C21.96838135 12.02857422 21.5617627 12.74464844 21.14282227 13.48242188 C17.87414485 19.56859761 16.67096291 25.05073674 17 32 C18.65 32.33 20.3 32.66 22 33 C22 33.99 22 34.98 22 36 C17.38 36 12.76 36 8 36 C8 35.01 8 34.02 8 33 C10.475 32.505 10.475 32.505 13 32 C13.31253256 22.78028957 9.97256268 16.19268811 5.71484375 8.30859375 C4 5 4 5 4 3 C3.01 3 2.02 3 1 3 C0.67 2.01 0.34 1.02 0 0 Z " fill="#ffffff" transform="translate(103,81)"/>
<path d="M0 0 C9.24 0 18.48 0 28 0 C28 2.64 28 5.28 28 8 C26.68 8 25.36 8 24 8 C24 6.35 24 4.7 24 3 C21.36 3 18.72 3 16 3 C16 12.57 16 22.14 16 32 C17.65 32.33 19.3 32.66 21 33 C21 33.99 21 34.98 21 36 C16.38 36 11.76 36 7 36 C7 35.01 7 34.02 7 33 C8.98 32.505 8.98 32.505 11 32 C11 22.43 11 12.86 11 3 C8.36 3 5.72 3 3 3 C3 4.65 3 6.3 3 8 C2.01 8 1.02 8 0 8 C0 5.36 0 2.72 0 0 Z " fill="#ffffff" transform="translate(767,81)"/>
<path d="M0 0 C4.29 0 8.58 0 13 0 C13 0.99 13 1.98 13 3 C11.68 3 10.36 3 9 3 C9 12.57 9 22.14 9 32 C13.29 32 17.58 32 22 32 C22 30.35 22 28.7 22 27 C22.99 27 23.98 27 25 27 C25 29.97 25 32.94 25 36 C16.75 36 8.5 36 0 36 C0 35.01 0 34.02 0 33 C1.98 32.505 1.98 32.505 4 32 C4 22.43 4 12.86 4 3 C2.68 2.67 1.36 2.34 0 2 C0 1.34 0 0.68 0 0 Z " fill="#ffffff" transform="translate(934,81)"/>
<path d="M0 0 C4.29 0 8.58 0 13 0 C13 0.99 13 1.98 13 3 C11.68 3 10.36 3 9 3 C9 12.57 9 22.14 9 32 C13.29 32 17.58 32 22 32 C22 30.35 22 28.7 22 27 C22.99 27 23.98 27 25 27 C25 29.97 25 32.94 25 36 C16.75 36 8.5 36 0 36 C0 35.01 0 34.02 0 33 C1.98 32.505 1.98 32.505 4 32 C4 22.43 4 12.86 4 3 C2.68 2.67 1.36 2.34 0 2 C0 1.34 0 0.68 0 0 Z " fill="#ffffff" transform="translate(899,81)"/>
<path d="M0 0 C1.59134766 -0.00386719 1.59134766 -0.00386719 3.21484375 -0.0078125 C6.0625 0.125 6.0625 0.125 9.0625 1.125 C9.0625 4.095 9.0625 7.065 9.0625 10.125 C7.7425 10.125 6.4225 10.125 5.0625 10.125 C4.7325 8.145 4.4025 6.165 4.0625 4.125 C-0.60980248 3.80277224 -3.07634627 3.69442314 -7.3125 5.8125 C-10.71296349 8.8081464 -11.73573937 11.3248759 -12.23828125 15.80859375 C-12.26153987 21.27437017 -12.26559202 25.53452824 -8.9375 30.125 C-5.02284578 33.38721185 -1.92582387 33.47505782 3.0625 33.125 C5.0689731 32.83314937 7.07244193 32.51330401 9.0625 32.125 C8.7325 33.445 8.4025 34.765 8.0625 36.125 C2.46605442 38.14924627 -2.11400171 38.57822271 -7.9375 37.125 C-12.93922169 34.62413915 -14.84416755 32.24403998 -16.9375 27.125 C-17.3359375 23.46875 -17.3359375 23.46875 -17.3125 19.625 C-17.32023437 18.3565625 -17.32796875 17.088125 -17.3359375 15.78125 C-16.8364685 11.19788741 -15.57010409 7.87392194 -12.40234375 4.48046875 C-7.81361917 0.97144407 -5.75360605 -0.01394814 0 0 Z " fill="#ffffff" transform="translate(1097.9375,79.875)"/>
<path d="M0 0 C9.24 0 18.48 0 28 0 C28 2.64 28 5.28 28 8 C27.01 8 26.02 8 25 8 C24.67 6.35 24.34 4.7 24 3 C21.36 3 18.72 3 16 3 C16 12.57 16 22.14 16 32 C17.65 32.33 19.3 32.66 21 33 C21 33.99 21 34.98 21 36 C16.38 36 11.76 36 7 36 C7 35.01 7 34.02 7 33 C9.475 32.505 9.475 32.505 12 32 C12 22.43 12 12.86 12 3 C9.03 3 6.06 3 3 3 C3 4.65 3 6.3 3 8 C2.01 8 1.02 8 0 8 C0 5.36 0 2.72 0 0 Z " fill="#ffffff" transform="translate(141,81)"/>
<path d="M0 0 C4.29 0 8.58 0 13 0 C13 0.99 13 1.98 13 3 C11.35 3 9.7 3 8 3 C8 12.57 8 22.14 8 32 C9.65 32.33 11.3 32.66 13 33 C13 33.99 13 34.98 13 36 C8.71 36 4.42 36 0 36 C0 35.01 0 34.02 0 33 C1.98 32.505 1.98 32.505 4 32 C4 22.43 4 12.86 4 3 C2.68 3 1.36 3 0 3 C0 2.01 0 1.02 0 0 Z " fill="#ffffff" transform="translate(969,81)"/>
<path d="M0 0 C4.29 0 8.58 0 13 0 C13 0.99 13 1.98 13 3 C11.35 3 9.7 3 8 3 C8 12.57 8 22.14 8 32 C9.65 32.33 11.3 32.66 13 33 C13 33.99 13 34.98 13 36 C8.71 36 4.42 36 0 36 C0 35.01 0 34.02 0 33 C1.98 32.505 1.98 32.505 4 32 C4 22.43 4 12.86 4 3 C2.68 3 1.36 3 0 3 C0 2.01 0 1.02 0 0 Z " fill="#ffffff" transform="translate(559,81)"/>
<path d="M0 0 C-0.48529412 6.43014706 -0.48529412 6.43014706 -2.75 8.9375 C-5.35402628 10.16717908 -7.15312226 10.23723981 -10 10 C-10.32152515 6.46322336 -10.4131192 4.6037896 -8.375 1.625 C-5.3962104 -0.4131192 -3.53677664 -0.32152515 0 0 Z " fill="#AD789F" transform="translate(505,217)"/>
<path d="M0 0 C0.53625 0.268125 1.0725 0.53625 1.625 0.8125 C1.4375 4.125 1.4375 4.125 0.625 7.8125 C-1.6875 9.8125 -1.6875 9.8125 -4.375 10.8125 C-6.6875 10.5 -6.6875 10.5 -8.375 9.8125 C-8.75 7.625 -8.75 7.625 -8.375 4.8125 C-3.50691489 -0.2768617 -3.50691489 -0.2768617 0 0 Z " fill="#AD789F" transform="translate(765.375,214.1875)"/>
</svg>
