<?xml version="1.0" encoding="utf-8"?>
<svg viewBox="0 179.322 628.497 279.429" style="enable-background:new 0 0 652 652;" xmlns="http://www.w3.org/2000/svg">
  <defs>
    <style type="text/css">
	.st0{fill:#ffffff;}
	.st1{fill:#CE0E2D;}
</style>
  </defs>
  <g>
    <path class="st0" d="M44.7,326.9L45,325l7.1,0.2l6.5-0.2l0.3,1.9l-4.7,0.7v22.5c0,7.2-2.9,12-13.9,14.5c-10.9,0-14.7-5.9-14.7-14.6 v-22.4l-5-0.7l0.3-1.9l7.6,0.2L36,325l0.3,1.9l-4.7,0.7v23.3c0,6.8,2.9,10.8,9.2,10.8c5.7,0,8.9-3.9,8.9-10.9v-23.1L44.7,326.9z"/>
  </g>
  <g>
    <path class="st0" d="M67,363.6l-6.3,0.2l-0.3-1.9l3.9-0.6v-20.2l-3.9,0.3l-0.3-1.9l6.6-1.7l2.4-0.2l0.3,4.6l8.2-5.4 c7.1,0,8.2,2.4,8.2,9v15.4l4.2,0.6l-0.3,1.9l-6.3-0.2l-5.3,0.2l-0.3-1.9l2.8-0.6v-15.8c0-2.9-1.3-4.1-3.6-4.1 c-1.9,0-3.9,1.2-5.7,2.5l-1.7,1.1v16.3l3,0.6l-0.3,1.9L67,363.6z"/>
    <path class="st0" d="M100.5,363.6l-6.4,0.2l-0.3-1.9l3.9-0.6v-20.2l-3.9,0.3l-0.3-1.9l6.6-1.7l2.8-0.2v23.7l4.1,0.6l-0.3,1.9 L100.5,363.6z M97.7,325.6l4-0.3l1.5,0.3l0.3,3.1l-0.6,2.6l-3.9,0.3l-1.5-0.3l-0.3-3.1L97.7,325.6z"/>
    <polygon class="st0" points="123.5,360.1 130.2,340.2 127.6,339.6 127.9,337.7 132.8,337.8 137.4,337.7 137.6,339.6 134.1,340.2 &#10;&#9;&#9;125,362.9 121,364.5 111.4,340.2 108,339.6 108.2,337.7 114.6,337.8 120.4,337.7 120.7,339.6 117,340.2 123,356.3 &#9;"/>
    <path class="st0" d="M144.3,349.6c0,6.3,3.4,10.8,9.2,10.8c2.2,0,4.9-1,6.9-2.3l0.9,2.1c-2.7,1.8-6.1,3.4-9.7,4.4 c-6.7,0-12.7-4.8-12.7-13.4c0-8.2,4.9-12.5,12.5-14.2c7.3,0,9.8,4.6,9.8,10.4v2.3H144.3z M155.4,346.8c0-4.3-0.8-7.2-5.1-7.2 c-3.4,0-5.5,3.1-6,7.7L155.4,346.8z"/>
    <path class="st0" d="M173.7,344.9l6.3-7.7h4.4v5.5h-4.1c-1.3,0.3-3.8,2.1-5.2,3.9l-1.1,1.3v13.1l5.8,0.6l-0.3,2.1l-8-0.2l-6.2,0.2 l-0.3-1.9l3.9-0.6v-20.2l-3.9,0.3l-0.3-1.9l6.6-1.7l2.2-0.2L173.7,344.9z"/>
    <path class="st0" d="M202.3,340.8c-0.6-0.3-2.2-1.2-4.2-1.2c-2.2,0-4.2,1.2-4.2,3.3c0,1.8,1.4,2.9,3.9,4.1l4.3,2.1 c3.7,1.9,5.2,4,5.2,7.1c0,5-4,6.9-10.4,8.2c-3.4,0-7-1.7-8.4-2.5l-1-6.2h3.5l1.9,4.6c1.2,0.8,2.8,1.4,4.5,1.4 c2.9,0,4.4-1.9,4.4-4.2c0-2.2-1.2-3.1-4-4.6l-4.4-2.3c-2.4-1.2-4.6-3.3-4.6-6.4c0-3.9,3.6-6,10-7.4c3,0,6.2,1.3,7.8,2.5v5.5h-2.9 L202.3,340.8z"/>
    <path class="st0" d="M217.9,363.6l-6.4,0.2l-0.3-1.9l3.9-0.6v-20.2l-3.9,0.3l-0.3-1.9l6.6-1.7l2.8-0.2v23.7l4.1,0.6l-0.3,1.9 L217.9,363.6z M215.1,325.6l4-0.3l1.5,0.3l0.3,3.1l-0.6,2.6l-3.9,0.3l-1.5-0.3l-0.3-3.1L215.1,325.6z"/>
    <path class="st0" d="M225.4,340.9v-0.9l1.9-1.9h3.6v-3.6l3.6-3.6h1.4v7.6h8.3v2.5H236v16.2c0,1.6,0.6,3.3,2.9,3.3 c1.6,0,2.8-0.6,4.4-1.3l0.9,1.9l-6.5,3.6c-6.2,0-7-2.2-7-7.2v-16.5H225.4z"/>
    <polygon class="st0" points="251.5,376.7 251.5,371.1 256.2,371.1 261.7,362.8 259.5,363.5 250.5,340.2 247,339.6 247.3,337.7 &#10;&#9;&#9;253.7,337.8 259.5,337.7 259.8,339.6 256.1,340.2 262,356.3 262.4,360.1 269,340.2 266.4,339.6 266.7,337.7 271.6,337.8 &#10;&#9;&#9;276.2,337.7 276.4,339.6 272.9,340.2 264.2,362.7 258,376.7 &#9;"/>
    <path class="st0" d="M319.5,350.1c0,8.2-5,13-13.6,14.4c-7.3,0-12.3-5.7-12.3-13.2c0-8.3,5-13,13.6-14.4 C314.5,336.9,319.5,342.6,319.5,350.1 M307.3,361.8c4.4,0,6.7-4.5,6.7-10.5c0-7-3.4-11.7-8.2-11.7c-4.5,0-6.7,4.5-6.7,10.5 C299.1,356.4,302.3,361.8,307.3,361.8"/>
    <path class="st0" d="M332.2,338.3h6.9v2.6h-6.9v20.4l6.3,0.4l-0.3,2.1l-8.6-0.2l-6.3,0.2l-0.3-1.9l3.9-0.6v-20.4h-4.9v-0.9l1.7-1.9 h3.2v-0.6c0-3.3,1-5.5,3-7.7l4.6-5.2h7v4.4h-7.2l-1,1.5c-0.8,1-1.2,2.7-1.2,6.2V338.3z"/>
    <path class="st0" d="M87.1,420.2c0-21.8,15.3-36.7,37.6-36.7c9.4,0,17.5,2.5,24.7,7.8l-5.5,7.8c-5.9-4.2-12.4-6.4-19.5-6.4 c-16.2,0-27.4,11.1-27.4,27.4c0,16.3,11.2,27.4,27.4,27.4c7,0,13.6-2.2,19.5-6.4l5.5,7.8c-7.2,5.3-15.3,7.8-24.7,7.8 C102.3,456.8,87.1,442,87.1,420.2"/>
    <rect x="159.3" y="385" class="st0" width="9" height="70.3"/>
    <path class="st0" d="M228,429.5c2.4,2.4,4.6,5.6,5.5,7.8l0.4-0.1c-0.6-2.7-1-6.8-1-12.7V385h9v71.3h-0.8l-42.9-45.5 c-2.3-2.4-4.5-5.6-5.5-7.8l-0.3,0.1c0.6,2.7,0.9,6.8,0.9,12.5v39.7h-9V384h0.9L228,429.5z"/>
    <path class="st0" d="M254.1,420.2c0-21.8,15.3-36.7,37.6-36.7c9.4,0,17.5,2.5,24.7,7.8l-5.5,7.8c-5.9-4.2-12.5-6.4-19.5-6.4 c-16.2,0-27.4,11.1-27.4,27.4c0,16.3,11.2,27.4,27.4,27.4c7,0,13.6-2.2,19.5-6.4l5.5,7.8c-7.2,5.3-15.3,7.8-24.7,7.8 C269.4,456.8,254.1,442,254.1,420.2"/>
    <rect x="326.3" y="385" class="st0" width="9" height="70.3"/>
    <path class="st0" d="M395,429.5c2.4,2.4,4.6,5.6,5.5,7.8l0.4-0.1c-0.6-2.7-1-6.8-1-12.7V385h9v71.3h-0.8l-42.9-45.5 c-2.3-2.4-4.5-5.6-5.5-7.8l-0.3,0.1c0.6,2.7,0.9,6.8,0.9,12.5v39.7h-9V384h0.9L395,429.5z"/>
    <path class="st0" d="M468.8,429.5c2.4,2.4,4.6,5.6,5.5,7.8l0.4-0.1c-0.6-2.7-1-6.8-1-12.7V385h9v71.3H482l-42.9-45.5 c-2.3-2.4-4.5-5.6-5.5-7.8l-0.3,0.1c0.6,2.7,0.9,6.8,0.9,12.5v39.7h-9V384h0.9L468.8,429.5z"/>
    <path class="st0" d="M524.5,383.5h1l32.8,71.8h-10.1l-8.7-19.7h-28.9l-8.7,19.7h-10.1L524.5,383.5z M518.7,427.9h12.7 c3.1,0,4.7,0.1,5.6,0.2l0.1-0.1c-0.8-1-1.8-2.6-3.1-5.7l-6.2-14.7c-1.4-3.6-2.3-6.4-2.5-8.2h-0.4c-0.2,1.8-1.1,4.6-2.5,8.2 l-6.2,14.7c-1.3,3.1-2.3,4.7-3.1,5.7l0.1,0.1C513.9,428,515.6,427.9,518.7,427.9"/>
    <path class="st0" d="M602.7,393.6h-18c-1.2,0-1.9,0-2.6-0.3l-0.1,0.2c0.2,0.5,0.3,1.3,0.3,2.4v59.4h-9V396c0-1.1,0.1-1.9,0.3-2.4 l-0.2-0.2c-0.7,0.3-1.3,0.3-2.5,0.3h-18.1V385h49.9V393.6z"/>
    <rect x="611.5" y="385" class="st0" width="9" height="70.3"/>
  </g>
  <g>
    <rect x="449" y="187.1" class="st1" width="33.8" height="9.8"/>
    <path class="st1" d="M424.1,282.8c0-26.9,15.7-48.6,38.9-60.8v-13.2c-33.4,10.9-57.3,39.1-57.3,74c0,17.3,4.5,30.7,12.3,42.8 c-20.6-3.6-29.5-18-29.5-42.8v-95.7h0h-37v9.9h17.7v85.9c0,34.4,22.4,52.3,56.6,52.8c13.1,14.5,31.5,24.6,52.5,27.6 c1.7,0.2,3.2,0.4,4.5,0.5V354c-1.7-0.3-2.9-0.6-2.9-0.6C447.8,345.2,424.1,317.9,424.1,282.8"/>
  </g>
  <g>
    <path class="st1" d="M502.1,282.8v-69.3c22.8,0,36.5,13.6,37.3,29.1l8.5,1.7l5.9-34.6l-10.1-2l-1.2,7.4 c-18.2-9.2-33.5-10.8-48.7-10.8c-3.7,0-7.4,0.2-11,0.7l0.1,77.9c0,15.1-2.2,24.1-9.9,33.6c-8.5-9.4-9.9-20.1-9.9-33.6 c0-7.2,0-41.5,0-41.5c-11.3,10.9-18.4,24.5-18.4,41.5c0,35.4,27.3,63,60.7,63c11.4,0,24.6-2.8,34.3-9.3l-2.4-3.6 c-13,6.6-39.4,8.2-55.5-6.9C495.2,315.9,502.1,303,502.1,282.8"/>
  </g>
</svg>